<?xml version="1.0" encoding="UTF-8" standalone="no"?>
<!-- Created with Inkscape (http://www.inkscape.org/) -->

<svg
   xmlns:dc="http://purl.org/dc/elements/1.1/"
   xmlns:cc="http://creativecommons.org/ns#"
   xmlns:rdf="http://www.w3.org/1999/02/22-rdf-syntax-ns#"
   xmlns:svg="http://www.w3.org/2000/svg"
   xmlns="http://www.w3.org/2000/svg"
   xmlns:sodipodi="http://sodipodi.sourceforge.net/DTD/sodipodi-0.dtd"
   xmlns:inkscape="http://www.inkscape.org/namespaces/inkscape"
   width="744.09448819"
   height="1052.3622047"
   id="svg2"
   version="1.1"
   inkscape:version="0.48.2 r9819"
   sodipodi:docname="drawing2.svg">
  <defs
     id="defs4" />
  <sodipodi:namedview
     id="base"
     pagecolor="#ffffff"
     bordercolor="#666666"
     borderopacity="1.0"
     inkscape:pageopacity="0.0"
     inkscape:pageshadow="2"
     inkscape:zoom="0.98994949"
     inkscape:cx="375"
     inkscape:cy="641.21831"
     inkscape:document-units="px"
     inkscape:current-layer="layer1"
     showgrid="false"
     inkscape:window-width="1366"
     inkscape:window-height="720"
     inkscape:window-x="0"
     inkscape:window-y="0"
     inkscape:window-maximized="0" />
  <metadata
     id="metadata7">
    <rdf:RDF>
      <cc:Work
         rdf:about="">
        <dc:format>image/svg+xml</dc:format>
        <dc:type
           rdf:resource="http://purl.org/dc/dcmitype/StillImage" />
        <dc:title></dc:title>
      </cc:Work>
    </rdf:RDF>
  </metadata>
  <g
     inkscape:label="Layer 1"
     inkscape:groupmode="layer"
     id="layer1">
    <path
       style="fill:none;stroke:#000000;stroke-width:1px;stroke-linecap:butt;stroke-linejoin:miter;stroke-opacity:1"
       d="m 209.10158,304.8493 c 47.47717,-29.29442 96.97464,9.09137 96.97464,9.09137 l 42.42641,69.70053 c 0,0 -40.4061,123.23861 -51.51778,58.58885 -11.11168,-64.64977 -80.81221,-49.49748 -80.81221,-49.49748 z"
       id="obj_1"
       inkscape:connector-curvature="0"
       inkscape:label="#path2985" />
    <rect
       style="fill:#0000ff;fill-rule:evenodd;stroke:#000000;stroke-width:1px;stroke-linecap:butt;stroke-linejoin:miter;stroke-opacity:1"
       id="rect2987"
       width="31.31473"
       height="48.487324"
       x="231.32494"
       y="400.81378" />
    <path
       style="fill:none;stroke:#000000;stroke-width:1px;stroke-linecap:butt;stroke-linejoin:miter;stroke-opacity:1"
       d="m 598.01031,296.76808 3.03046,195.96959 -159.60411,-4.04061 0,-28.28427 c 0,0 74.75129,16.16244 110.10663,-6.06092 35.35534,-22.22335 46.46702,-157.58379 46.46702,-157.58379 z"
       id="obj3"
       inkscape:connector-curvature="0"
       inkscape:label="#path3044" />
    <path
       style="fill:none;stroke:#000000;stroke-width:1px;stroke-linecap:butt;stroke-linejoin:miter;stroke-opacity:1"
       d="m 475.78185,354.34677 94.95434,-30.30457 -6.06092,91.92388 -29.29442,30.30457 -52.52793,9.09138 c 0,0 -59.599,-14.14214 -29.29443,-20.20305 30.30458,-6.06092 22.22336,-80.81221 22.22336,-80.81221 z"
       id="path10636"
       inkscape:connector-curvature="0" />
    <path
       style="fill:none;stroke:#000000;stroke-width:1px;stroke-linecap:butt;stroke-linejoin:miter;stroke-opacity:1"
       d="m 264.65997,513.95087 c 146.47212,-1.01015 263.64981,-2.0203 263.64981,-2.0203 0,0 7.07107,75.76144 1.01016,70.71068 -6.06092,-5.05077 -94.95434,-40.4061 -94.95434,-40.4061 l -85.86297,0 -94.95434,41.41625 -2.02031,-70.71068 z"
       id="path10638"
       inkscape:connector-curvature="0" />
  </g>
</svg>
