<?xml version="1.0" encoding="utf-8"?>
<!-- Generator: Adobe Illustrator 15.1.0, SVG Export Plug-In . SVG Version: 6.00 Build 0)  -->
<!DOCTYPE svg PUBLIC "-//W3C//DTD SVG 1.1//EN" "http://www.w3.org/Graphics/SVG/1.1/DTD/svg11.dtd">
<svg version="1.1" id="Layer_1" xmlns="http://www.w3.org/2000/svg" xmlns:xlink="http://www.w3.org/1999/xlink" x="0px" y="0px"
	 width="1832.882px" height="935.435px" viewBox="272.126 323.149 1832.882 935.435"
	 enable-background="new 272.126 323.149 1832.882 935.435" xml:space="preserve">
<g id="Layer_2">
	<path fill="#94D9FF" stroke="#3B79C4" stroke-miterlimit="10" d="M1289.764,422.362v-34.017h22.205v25.513h25.984v-28.348h-5.67
		v-62.361h204.095v39.686h164.409c0,0,146.07,12.608,159.543,175.748c0,0-0.559,156.36-159.543,181.417h-48.897v-85.039h37.561
		c0,0,79.719-16.849,79.369-95.71c0,0,1.61-70.97-79.369-87.916l-306.144-0.626l-0.171-28.319L1289.764,422.362z"/>
	<polygon fill="#94D9FF" stroke="#3B79C4" stroke-miterlimit="10" points="1281.26,910.968 1269.921,910.846 1270.146,890.111 
		1281.719,890.236 	"/>
	<polygon fill="#94D9FF" stroke="#3B79C4" stroke-miterlimit="10" points="1318.11,799.902 1318.141,890.6 1267.087,890.079 
		1269.184,799.902 	"/>
	<polygon fill="#94D9FF" stroke="#3B79C4" stroke-miterlimit="10" points="1318.11,799.902 1474.016,799.902 1474.016,878.74 
		1355.905,878.74 1355.7,891.036 1318.141,890.6 	"/>
	<path fill="#94D9FF" stroke="#3B79C4" stroke-miterlimit="10" d="M1388.998,1213.797l4.748-101.719l74.601-0.897l20.635,26.456
		c0,0-37.627,28.932-60.319,75.593L1388.998,1213.797z"/>
	<polygon fill="#94D9FF" stroke="#3B79C4" stroke-miterlimit="10" points="1279.375,1113.452 1277.416,1215.396 1388.998,1213.797 
		1393.746,1112.078 	"/>
	<polygon fill="#94D9FF" stroke="#3B79C4" stroke-miterlimit="10" points="861.732,1043.149 861.732,1026.142 870.236,1026.142 
		870.236,1043.604 	"/>
	<polygon fill="#94D9FF" stroke="#3B79C4" stroke-miterlimit="10" points="861.732,1043.149 870.236,1043.604 876.949,1070.293 
		869.881,1071.34 	"/>
	<polygon fill="#94D9FF" stroke="#3B79C4" stroke-miterlimit="10" points="773.858,989.291 773.858,1054.488 822.047,1048.819 
		830.295,1077.204 869.881,1071.34 861.732,1043.149 861.732,989.291 	"/>
	<path fill="#94D9FF" stroke="#3B79C4" stroke-miterlimit="10" d="M754.016,1088.504c0,0-26.119-43.646,0-99.213h19.844v65.197
		l48.188-5.669l8.248,28.385L754.016,1088.504z"/>
	<path fill="#94D9FF" stroke="#3B79C4" stroke-miterlimit="10" d="M754.016,1088.504c0,0,14.229,20.497,14.175,53.858l76.534-8.504
		l-10.681-57.21L754.016,1088.504z"/>
	<polygon fill="#94D9FF" stroke="#3B79C4" stroke-miterlimit="10" points="955.275,1058.802 961.341,1092.503 986.604,1087.924 
		980.787,1054.488 	"/>
	<polygon fill="#94D9FF" stroke="#3B79C4" stroke-miterlimit="10" points="890.539,1068.28 896.973,1102.596 961.341,1092.503 
		955.275,1058.802 	"/>
	<polygon fill="#94D9FF" stroke="#3B79C4" stroke-miterlimit="10" points="768.189,1142.362 765.354,1173.543 773.858,1218.896 
		915.591,1201.89 892.454,1076.173 859.279,1081.701 858.006,1073.1 834.044,1076.648 844.725,1133.391 	"/>
	<polygon fill="#94D9FF" stroke="#3B79C4" stroke-miterlimit="10" points="858.006,1073.1 859.279,1081.701 892.153,1076.89 
		890.539,1068.28 	"/>
	<polygon fill="#94D9FF" stroke="#3B79C4" stroke-miterlimit="10" points="1303.398,945.129 1298.268,1037.48 1360.63,1037.48 
		1366.299,935.434 1326.614,935.434 1326.614,945.638 	"/>
	<polygon fill="#94D9FF" stroke="#3B79C4" stroke-miterlimit="10" points="1303.938,935.434 1303.398,945.129 1326.614,945.638 
		1326.614,935.434 	"/>
	<polygon fill="#94D9FF" stroke="#3B79C4" stroke-miterlimit="10" points="1269.921,935.433 1269.921,986.457 1301.104,986.457 
		1303.938,935.434 	"/>
	<polygon fill="#94D9FF" stroke="#3B79C4" stroke-miterlimit="10" points="1354.961,935.434 1355.905,878.74 1474.016,878.74 
		1474.016,955.275 1388.977,1037.48 1360.63,1037.48 1366.299,935.433 	"/>
	<polygon fill="#94D9FF" stroke="#3B79C4" stroke-miterlimit="10" points="369.13,563.356 443.219,550.381 446.391,566.93 
		514.872,553.712 535.748,656.504 393.969,678.682 	"/>
	<polygon fill="#94D9FF" stroke="#3B79C4" stroke-miterlimit="10" points="436.465,515.155 361.599,528.39 369.13,563.356 
		443.219,550.381 	"/>
	<polygon fill="#94D9FF" stroke="#3B79C4" stroke-miterlimit="10" points="436.465,515.155 504.989,505.05 514.872,553.712 
		446.391,566.93 	"/>
	<polygon fill="#94D9FF" stroke="#3B79C4" stroke-miterlimit="10" points="425.197,456.378 492.485,443.478 504.989,505.05 
		436.465,515.155 	"/>
	<polygon fill="#94D9FF" stroke="#3B79C4" stroke-miterlimit="10" points="334.488,402.52 479.772,380.882 492.485,443.478 
		425.197,456.378 436.465,515.155 361.599,528.39 	"/>
	<path fill="#94D9FF" stroke="#3B79C4" stroke-miterlimit="10" d="M748.347,805.039h192.756v56.693h-85.04v28.347h-79.368
		C776.693,890.079,771.969,847.56,748.347,805.039z"/>
	<path fill="#94D9FF" stroke="#3B79C4" stroke-miterlimit="10" d="M778.11,941.104c0,0,2.308-19.834-1.417-51.023h79.369v-28.347
		h85.039V805.04h48.188v5.67h172.914v34.016h17.008v34.017h-15.308v25.512h-18.708v28.063H867.401v8.786H778.11L778.11,941.104z"/>
	<path fill="#94D9FF" stroke="#3B79C4" stroke-miterlimit="10" d="M718.899,754.016c0,0,4.991,24.84,29.446,51.023h147.401v-51.023
		H718.899z"/>
	<polygon fill="#94D9FF" stroke="#3B79C4" stroke-miterlimit="10" points="816.378,685.984 850.394,685.984 852.756,754.016 
		822.047,754.016 	"/>
	<path fill="#94D9FF" stroke="#3B79C4" stroke-miterlimit="10" d="M720,685.984c0,0-11.169,31.989-1.1,68.03h103.146l-5.669-68.03
		H720z"/>
	<rect x="1047.686" y="687.686" fill="#94D9FF" stroke="#3B79C4" stroke-miterlimit="10" width="9.638" height="20.977"/>
	<rect x="1039.181" y="754.016" fill="#94D9FF" stroke="#3B79C4" stroke-miterlimit="10" width="18.143" height="5.67"/>
	<rect x="1043.149" y="782.362" fill="#94D9FF" stroke="#3B79C4" stroke-miterlimit="10" width="17.008" height="17.008"/>
	<polygon fill="#94D9FF" stroke="#3B79C4" stroke-miterlimit="10" points="989.291,782.487 989.291,810.834 1060.157,810.834 
		1060.157,799.495 1043.149,799.495 1043.149,782.487 	"/>
	<rect x="1009.134" y="753.007" fill="#94D9FF" stroke="#3B79C4" stroke-miterlimit="10" width="17.008" height="3.969"/>
	<rect x="989.291" y="753.007" fill="#94D9FF" stroke="#3B79C4" stroke-miterlimit="10" width="19.843" height="3.969"/>
	<polygon fill="#94D9FF" stroke="#3B79C4" stroke-miterlimit="10" points="850.394,686.109 852.756,754.141 895.748,754.141 
		895.748,805.164 989.291,805.164 989.291,753.007 1037.055,753.007 1037.48,720.125 1043.149,720.125 1043.149,714.456 
		958.11,714.456 958.11,686.109 	"/>
	<rect x="1040.314" y="723.81" fill="#94D9FF" stroke="#3B79C4" stroke-miterlimit="10" width="17.008" height="26.646"/>
	<polygon fill="#94D9FF" stroke="#3B79C4" stroke-miterlimit="10" points="958.11,686.109 958.11,714.456 1043.149,714.456 
		1043.149,720.125 1037.48,720.125 1037.055,753.007 1039.182,754.141 1057.323,754.141 1057.322,750.456 1040.314,750.456 
		1040.314,723.81 1057.322,723.81 1057.322,708.786 1047.686,708.786 1047.686,687.811 1057.322,687.811 1057.323,686.109 	"/>
	<line fill="none" stroke="#3B79C4" stroke-miterlimit="10" x1="1077.165" y1="810.709" x2="1060.157" y2="810.834"/>
	<rect x="1077.165" y="759.686" fill="#94D9FF" stroke="#3B79C4" stroke-miterlimit="10" width="45.354" height="51.023"/>
	<polygon fill="#94D9FF" stroke="#3B79C4" stroke-miterlimit="10" points="1122.52,759.686 1122.52,810.709 1127.962,810.709 
		1127.892,759.685 	"/>
	<rect x="1162.205" y="759.685" fill="#94D9FF" stroke="#3B79C4" stroke-miterlimit="10" width="90.708" height="17.01"/>
	<rect x="1162.205" y="805.039" fill="#94D9FF" stroke="#3B79C4" stroke-miterlimit="10" width="28.346" height="17.008"/>
	<rect x="1218.896" y="805.039" fill="#94D9FF" stroke="#3B79C4" stroke-miterlimit="10" width="34.017" height="22.678"/>
	<rect x="1162.205" y="776.693" fill="#94D9FF" stroke="#3B79C4" stroke-miterlimit="10" width="90.708" height="28.346"/>
	<polygon fill="#94D9FF" stroke="#3B79C4" stroke-miterlimit="10" points="1127.892,759.685 1127.962,810.709 1162.205,810.709 
		1162.205,759.685 	"/>
	<rect x="1230.236" y="844.725" fill="#94D9FF" stroke="#3B79C4" stroke-miterlimit="10" width="22.677" height="17.48"/>
	<polygon fill="#94D9FF" stroke="#3B79C4" stroke-miterlimit="10" points="1162.205,822.047 1190.551,822.047 1190.551,805.039 
		1218.896,805.039 1218.896,827.717 1252.913,827.717 1252.913,844.725 1230.236,844.725 1230.236,850.394 1179.213,850.394 
		1179.213,844.725 1162.205,844.725 	"/>
	<polygon fill="#94D9FF" stroke="#3B79C4" stroke-miterlimit="10" points="1179.213,850.394 1230.236,850.394 1230.236,862.205 
		1252.913,862.205 1252.913,878.74 1235.905,878.74 1235.905,890.079 1179.213,890.079 	"/>
	<polygon fill="#94D9FF" stroke="#3B79C4" stroke-miterlimit="10" points="1252.913,878.74 1252.913,894.614 1163.905,894.614 
		1163.905,878.74 1179.094,878.64 1179.213,890.079 1235.905,890.079 1235.905,878.74 	"/>
	<rect x="1173.543" y="924.095" fill="#94D9FF" stroke="#3B79C4" stroke-miterlimit="10" width="68.032" height="5.196"/>
	<polygon fill="#94D9FF" stroke="#3B79C4" stroke-miterlimit="10" points="1162.205,918.425 1173.543,918.425 1173.543,929.291 
		1179.213,929.291 1179.213,939.213 1162.205,939.213 	"/>
	<polygon fill="#94D9FF" stroke="#3B79C4" stroke-miterlimit="10" points="1235.905,929.291 1235.905,938.268 1252.913,938.268 
		1252.913,918.425 1241.575,918.425 1241.575,929.291 	"/>
	<path fill="#94D9FF" stroke="#3B79C4" stroke-miterlimit="10" d="M1723.505,1124.564l15.296-24.723h75.372l-5.292,73.194
		c0,0-28.068,0.225-55.546-26.025C1753.335,1147.012,1735.524,1131.023,1723.505,1124.564z"/>
	<path fill="#94D9FF" stroke="#3B79C4" stroke-miterlimit="10" d="M1814.173,1099.843l-5.292,73.194c0,0,69.213,4.339,138.15-30.904
		l-19.474-42.29H1814.173L1814.173,1099.843z"/>
	<path fill="#94D9FF" stroke="#3B79C4" stroke-miterlimit="10" d="M1940.337,1127.594l67.31-57.188l16.291,18.1
		c0,0-33.594,33.122-76.905,53.629L1940.337,1127.594z"/>
	<polygon fill="#94D9FF" stroke="#3B79C4" stroke-miterlimit="10" points="2032.441,895.748 2035.275,892.913 2063.622,926.929 
		2060.787,929.764 	"/>
	<polygon fill="#94D9FF" stroke="#3B79C4" stroke-miterlimit="10" points="2066.457,924.095 2058.236,932.315 2066.344,940.422 
		2074.961,932.599 	"/>
	<polygon fill="#94D9FF" stroke="#3B79C4" stroke-miterlimit="10" points="2031.874,883.843 2024.447,891.27 2030.003,898.186 
		2038.11,890.079 	"/>
	<polygon fill="#94D9FF" stroke="#3B79C4" stroke-miterlimit="10" points="2077.576,999.438 2090.268,987.591 2080.63,977.953 
		2089.134,969.449 2105.008,989.291 2084.475,1007.105 	"/>
	<polygon fill="#94D9FF" stroke="#3B79C4" stroke-miterlimit="10" points="553.598,738.65 442.205,754.016 444.372,764.451 
		449.969,762.89 465.266,830.672 569.975,814.849 	"/>
	<polygon fill="#94D9FF" stroke="#3B79C4" stroke-miterlimit="10" points="465.266,830.672 473.304,867.993 578.246,853.335 
		569.975,814.849 	"/>
	<polygon fill="#94D9FF" stroke="#3B79C4" stroke-miterlimit="10" points="473.304,867.993 486.448,929.021 591.844,916.598 
		578.246,853.335 	"/>
	<path fill="#94D9FF" stroke="#3B79C4" stroke-miterlimit="10" d="M568.633,1232.275l-18.712,3.63l-28.346-107.716l22.752-3.219
		l-5.311-23.438l-51.459,9.648l-34.016-137.773h42.466l-45.3-210.32l-36.851,7.938l-2.681-12.447l-40.18,5.486l110.893,494.521
		l90.11-11.442L568.633,1232.275z M380.552,806.673l55.983-12.554l33.94,151.356l-56.658,9.548L380.552,806.673z"/>
	<polygon fill="#94D9FF" stroke="#3B79C4" stroke-miterlimit="10" points="539.315,1195.604 559.792,1193.246 568.633,1232.275 
		549.921,1235.905 	"/>
	<polygon fill="#94D9FF" stroke="#3B79C4" stroke-miterlimit="10" points="584.306,1126.378 591.774,1166.206 623.622,1162.205 
		639.312,1238.592 660.473,1235.905 635.109,1117.9 	"/>
	<polygon fill="#94D9FF" stroke="#3B79C4" stroke-miterlimit="10" points="535.208,1086.389 539.018,1101.532 578.268,1094.173 
		584.306,1126.378 635.109,1117.9 619.703,1046.218 551.171,1055.077 555.509,1082.85 	"/>
	<polygon fill="#94D9FF" stroke="#3B79C4" stroke-miterlimit="10" points="486.448,929.021 496.009,973.407 453.543,973.407 
		476.104,1064.782 619.703,1046.218 591.844,916.598 	"/>
	<polygon fill="#94D9FF" stroke="#3B79C4" stroke-miterlimit="10" points="475.851,1063.76 551.435,1055.077 555.895,1082.835 
		483.435,1094.48 	"/>
	<polygon fill="#94D9FF" stroke="#3B79C4" stroke-miterlimit="10" points="513.241,1089.792 516.079,1105.834 539.018,1101.533 
		535.396,1086.129 	"/>
	<polygon fill="#94D9FF" stroke="#3B79C4" stroke-miterlimit="10" points="483.435,1094.48 487.559,1111.182 516.079,1105.834 
		513.141,1089.229 	"/>
	<polygon fill="#94D9FF" stroke="#3B79C4" stroke-miterlimit="10" points="583.938,1167.874 623.622,1162.205 639.312,1238.592 
		599.896,1243.598 	"/>
	<polygon fill="#94D9FF" stroke="#3B79C4" stroke-miterlimit="10" points="554.87,1171.517 583.938,1167.874 599.896,1243.598 
		572,1247.141 	"/>
	<polygon fill="#94D9FF" stroke="#3B79C4" stroke-miterlimit="10" points="532.052,1168.001 543.201,1167.075 549.246,1194.461 
		539.315,1195.604 	"/>
	<polygon fill="#94D9FF" stroke="#3B79C4" stroke-miterlimit="10" points="543.201,1167.075 553.667,1166.206 559.792,1193.246 
		549.246,1194.461 	"/>
	<polygon fill="#94D9FF" stroke="#3B79C4" stroke-miterlimit="10" points="521.575,1128.189 544.327,1124.972 553.667,1166.206 
		532.052,1168.001 	"/>
	<polygon fill="#94D9FF" stroke="#3B79C4" stroke-miterlimit="10" points="539.018,1101.533 578.268,1094.173 583.013,1119.479 
		544.504,1125.754 	"/>
	<polygon fill="#94D9FF" stroke="#3B79C4" stroke-miterlimit="10" points="550.812,1153.601 588.278,1147.562 591.812,1166.414 
		554.87,1171.517 	"/>
	<polygon fill="#94D9FF" stroke="#3B79C4" stroke-miterlimit="10" points="583.013,1119.479 544.504,1125.755 550.812,1153.601 
		588.278,1147.562 	"/>
	<polygon fill="#94D9FF" stroke="#3B79C4" stroke-miterlimit="10" points="400.067,706.994 359.417,712.417 370.997,764.062 
		411.177,758.576 	"/>
	<polygon fill="#94D9FF" stroke="#3B79C4" stroke-miterlimit="10" points="399.216,703.042 413.858,771.023 444.372,764.451 
		442.205,754.016 553.598,738.65 541.417,681.981 	"/>
	<polygon fill="#94D9FF" stroke="#3B79C4" stroke-miterlimit="10" points="380.552,806.673 436.535,794.119 470.477,945.477 
		413.819,955.023 	"/>
	<polygon fill="#94D9FF" stroke="#3B79C4" stroke-miterlimit="10" points="1162.205,717.165 1162.205,742.677 1252.913,742.677 
		1252.913,716.693 	"/>
	<polygon fill="#94D9FF" stroke="#3B79C4" stroke-miterlimit="10" points="1162.205,688.819 1252.913,688.819 1252.913,716.693 
		1162.205,717.165 	"/>
	<rect x="1394.646" y="714.331" fill="#94D9FF" stroke="#3B79C4" stroke-miterlimit="10" width="79.369" height="85.571"/>
	<polygon fill="#94D9FF" stroke="#3B79C4" stroke-miterlimit="10" points="1474.016,955.275 1474.016,799.902 1553.386,799.902 
		1547.717,955.275 	"/>
	<polygon fill="#94D9FF" stroke="#3B79C4" stroke-miterlimit="10" points="1473.927,753.927 1473.927,799.812 1553.297,799.812 
		1554.017,753.927 	"/>
	<rect x="1349.202" y="714.242" fill="#94D9FF" stroke="#3B79C4" stroke-miterlimit="10" width="45.354" height="85.57"/>
	<polygon fill="#94D9FF" stroke="#3B79C4" stroke-miterlimit="10" points="1553.973,777.523 1551.961,821.574 1640.141,820.185 
		1644.044,777.247 	"/>
	<polygon fill="#94D9FF" stroke="#3B79C4" stroke-miterlimit="10" points="1843.51,1035.046 1842.52,1016.854 1792.092,963.352 
		1730.84,1021.085 1746.142,1037.48 	"/>
	<polygon fill="#94D9FF" stroke="#3B79C4" stroke-miterlimit="10" points="1749.486,827.206 1723.465,799.37 1731.003,792.125 
		1756.29,820.403 	"/>
	<polygon fill="#94D9FF" stroke="#3B79C4" stroke-miterlimit="10" points="1720.48,839.055 1723.465,799.37 1749.486,827.206 
		1737.638,839.055 	"/>
	<polygon fill="#94D9FF" stroke="#3B79C4" stroke-miterlimit="10" points="1642.033,799.37 1638.426,839.055 1720.461,839.321 
		1723.465,799.37 	"/>
	<polygon fill="#94D9FF" stroke="#3B79C4" stroke-miterlimit="10" points="1552.515,821.574 1547.717,955.275 1669.537,955.403 
		1666.771,952.441 1715.365,907.087 1720.461,839.321 1638.426,839.055 1640.141,820.185 	"/>
	<polygon fill="#94D9FF" stroke="#3B79C4" stroke-miterlimit="10" points="1813.886,763.226 1784.693,729.604 1810.771,706.96 
		1838.48,738.153 	"/>
	<polygon fill="#94D9FF" stroke="#3B79C4" stroke-miterlimit="10" points="1829.206,747.959 1847.055,729.578 1854.484,737.008 
		1851.023,740.469 1862.771,752.365 1845.303,768.632 	"/>
	<polygon fill="#94D9FF" stroke="#3B79C4" stroke-miterlimit="10" points="1875.288,760.933 1902.047,734.173 1922.204,758.214 
		1895.291,782.977 	"/>
	<polygon fill="#94D9FF" stroke="#3B79C4" stroke-miterlimit="10" points="1800,776.693 1829.206,747.959 1842.762,765.368 
		1814.892,793.025 	"/>
	<polygon fill="#94D9FF" stroke="#3B79C4" stroke-miterlimit="10" points="1763.466,760.922 1789.859,735.553 1813.886,763.226 
		1788.151,788.542 	"/>
	<polygon fill="#94D9FF" stroke="#3B79C4" stroke-miterlimit="10" points="1731.003,792.125 1756.29,820.403 1788.151,788.542 
		1763.466,760.922 	"/>
	<polygon fill="#94D9FF" stroke="#3B79C4" stroke-miterlimit="10" points="1858.979,900.306 1916.686,846.527 1940.04,872.584 
		1880.518,926.929 	"/>
	<polygon fill="#94D9FF" stroke="#3B79C4" stroke-miterlimit="10" points="1976.209,926.211 1995.33,908.023 2029.287,945.767 
		2009.795,963.216 	"/>
	<polygon fill="#94D9FF" stroke="#3B79C4" stroke-miterlimit="10" points="2009.795,963.216 2029.287,945.767 2046.762,965.188 
		2026.771,981.921 	"/>
	<polygon fill="#94D9FF" stroke="#3B79C4" stroke-miterlimit="10" points="1965.524,914.438 1984.252,895.71 1995.33,908.023 
		1976.209,926.211 	"/>
	<polygon fill="#94D9FF" stroke="#3B79C4" stroke-miterlimit="10" points="1925.215,1033.004 1927.559,1014.803 1998.425,949.606 
		2026.771,981.921 2046.762,965.188 2086.299,1009.134 2015.362,1078.977 1972.913,1031.811 	"/>
	<polygon fill="#94D9FF" stroke="#3B79C4" stroke-miterlimit="10" points="1837.596,920.461 1858.979,900.306 1875.29,920.832 
		1854.01,938.438 	"/>
	<polygon fill="#94D9FF" stroke="#3B79C4" stroke-miterlimit="10" points="1876.398,962.96 1895.585,946.373 1904.882,958.072 
		1887.175,974.763 	"/>
	<polygon fill="#94D9FF" stroke="#3B79C4" stroke-miterlimit="10" points="1854.01,938.438 1860.33,945.36 1880.518,926.929 
		1875.29,920.832 	"/>
	<polygon fill="#94D9FF" stroke="#3B79C4" stroke-miterlimit="10" points="1864.334,996.292 1816.641,940.212 1837.596,920.461 
		1887.175,974.763 	"/>
	<polygon fill="#94D9FF" stroke="#3B79C4" stroke-miterlimit="10" points="1792.092,963.352 1816.641,940.212 1864.334,996.292 
		1842.52,1016.854 	"/>
	<polygon fill="#94D9FF" stroke="#3B79C4" stroke-miterlimit="10" points="1925.215,1033.004 1927.559,1014.803 1997.89,950.099 
		1965.524,914.438 1913.386,966.576 1904.882,958.072 1842.52,1016.854 1843.51,1035.046 	"/>
	<polygon fill="#94D9FF" stroke="#3B79C4" stroke-miterlimit="10" points="1876.398,962.96 1895.585,946.373 1880.296,927.131 
		1860.33,945.36 	"/>
	<polygon fill="#94D9FF" stroke="#3B79C4" stroke-miterlimit="10" points="1814.892,793.025 1842.762,765.368 1845.303,768.632 
		1862.771,752.365 1873.247,762.974 1875.288,760.933 1895.291,782.977 1876.535,801.732 1898.01,825.69 1869.046,852.42 	"/>
	<polygon fill="#94D9FF" stroke="#3B79C4" stroke-miterlimit="10" points="1869.046,852.42 1898.01,825.69 1916.686,846.527 
		1887.874,873.071 	"/>
	<polygon fill="#94D9FF" stroke="#3B79C4" stroke-miterlimit="10" points="1720.48,839.055 1737.638,839.055 1800,776.693 
		1887.874,873.071 1730.84,1021.085 1666.771,952.441 1715.365,907.087 	"/>
	<polygon fill="#94D9FF" stroke="#3B79C4" stroke-miterlimit="10" points="1940.04,872.584 1876.535,801.732 1922.204,758.214 
		1984.252,832.217 	"/>
	<polyline fill="none" stroke="#3B79C4" stroke-miterlimit="10" points="1913.386,921.26 1955.905,884.409 1967.244,897.492 	"/>
	<polyline fill="none" stroke="#3B79C4" stroke-miterlimit="10" points="1927.559,745.512 1988.787,816.378 1978.78,825.69 	"/>
	<polygon fill="#94D9FF" stroke="#3B79C4" stroke-miterlimit="10" points="783.729,537.408 844.725,537.408 844.725,632.126 
		799.37,632.126 	"/>
	<polygon fill="#94D9FF" stroke="#3B79C4" stroke-miterlimit="10" points="638.25,484.713 728.861,472.696 736.905,520.962 
		647.547,532.748 	"/>
	<path fill="#94D9FF" stroke="#3B79C4" stroke-miterlimit="10" d="M647.547,532.748l89.358-11.786l5.771,34.629l-56.691,45.354
		c0,0-21.684-15.153-34.017-45.354L647.547,532.748z"/>
	<g>
		<path fill="#94D9FF" stroke="#3B79C4" stroke-miterlimit="10" d="M773.238,473.883l-43.074,6.628l6.741,40.451l5.771,34.629
			l-56.691,45.354c0,0,19.372,10.25,24.095,31.181h89.291L773.238,473.883z"/>
	</g>
	<polygon fill="#94D9FF" stroke="#3B79C4" stroke-miterlimit="10" points="1162.205,615.118 1162.205,583.938 1201.89,583.938 
		1201.89,538.583 1255.748,538.583 1255.748,615.118 	"/>
	<rect x="1162.205" y="615.118" fill="#94D9FF" stroke="#3B79C4" stroke-miterlimit="10" width="34.016" height="14.173"/>
	<rect x="1162.205" y="629.291" fill="#94D9FF" stroke="#3B79C4" stroke-miterlimit="10" width="93.543" height="28.347"/>
	<rect x="1199.055" y="657.638" fill="#94D9FF" stroke="#3B79C4" stroke-miterlimit="10" width="56.693" height="31.183"/>
	<polygon fill="#94D9FF" stroke="#3B79C4" stroke-miterlimit="10" points="1071.496,632.126 1071.496,742.677 1162.205,742.677 
		1162.205,688.819 1199.055,688.819 1199.055,657.638 1162.205,657.638 1162.205,632.126 	"/>
	<polygon fill="#94D9FF" stroke="#3B79C4" stroke-miterlimit="10" points="575.65,376.626 579.469,383.073 617.953,379.843 
		685.984,374.173 691.653,406.039 760.166,394.726 748.347,323.149 731.339,323.149 702.992,330.709 702.992,323.149 
		671.811,334.488 674.646,357.165 654.805,362.834 619.087,362.835 620.787,370.8 	"/>
	<polygon fill="#94D9FF" stroke="#3B79C4" stroke-miterlimit="10" points="668.977,323.149 646.299,328.819 654.803,362.835 
		600.945,362.835 334.488,402.52 400.067,706.994 359.417,712.417 272.126,323.149 	"/>
	<polygon fill="#94D9FF" stroke="#3B79C4" stroke-miterlimit="10" points="691.46,406.039 760.166,394.726 773.238,473.883 
		730.164,480.511 720.191,420.677 694.488,425.197 	"/>
	<polygon fill="#94D9FF" stroke="#3B79C4" stroke-miterlimit="10" points="617.953,379.843 626.646,424.764 692.828,415.237 
		685.984,374.173 	"/>
	<polygon fill="#94D9FF" stroke="#3B79C4" stroke-miterlimit="10" points="626.646,424.764 692.828,415.237 694.488,425.197 
		720.191,420.677 728.861,472.696 638.25,484.713 	"/>
	<polygon fill="#94D9FF" stroke="#3B79C4" stroke-miterlimit="10" points="654.803,362.835 646.299,328.819 668.977,323.149 
		675.219,357.165 	"/>
	<polygon fill="#94D9FF" stroke="#3B79C4" stroke-miterlimit="10" points="1311.969,388.347 1311.969,413.858 1337.953,413.858 
		1337.953,385.512 1332.969,385.39 1332.668,388.455 	"/>
	<rect x="1247.244" y="323.149" fill="#94D9FF" stroke="#3B79C4" stroke-miterlimit="10" width="85.039" height="65.196"/>
	<polygon fill="#94D9FF" stroke="#3B79C4" stroke-miterlimit="10" points="1383.307,450.718 1479.594,450.7 1475.68,574.857 
		1383.307,575.221 	"/>
	<polygon fill="#94D9FF" stroke="#3B79C4" stroke-miterlimit="10" points="748.347,323.149 783.729,537.408 844.725,537.408 
		844.725,632.126 1162.205,632.126 1162.205,583.938 1201.89,583.938 1201.89,538.583 1255.748,538.583 1255.748,615.118 
		1286.93,615.118 1286.93,620.787 1383.307,620.787 1383.307,422.362 1289.764,422.362 1289.764,388.347 1247.244,388.347 
		1247.244,323.149 	"/>
	<polygon fill="#94D9FF" stroke="#3B79C4" stroke-miterlimit="10" points="1479.686,450.709 1474.016,626.457 1717.795,626.457 
		1740.473,609.449 1745.403,481.249 1689.449,450.709 	"/>
	<rect x="1556.221" y="634.961" fill="#94D9FF" stroke="#3B79C4" stroke-miterlimit="10" width="95.669" height="85.039"/>
	<line fill="none" stroke="#3B79C4" stroke-miterlimit="10" x1="1644.141" y1="775.337" x2="1646.93" y2="720"/>
	<polyline fill="none" stroke="#3B79C4" stroke-miterlimit="10" points="1343.622,924.095 1292.599,924.095 1292.599,907.087 
		1354.961,907.087 	"/>
	<line fill="none" stroke="#3B79C4" stroke-miterlimit="10" x1="1190.551" y1="904.252" x2="1163.905" y2="904.252"/>
	<line fill="none" stroke="#3B79C4" stroke-miterlimit="10" x1="1269.921" y1="768.189" x2="1269.184" y2="799.902"/>
	<path fill="#94D9FF" stroke="#3B79C4" stroke-miterlimit="10" d="M1110.363,1062.041l63.18,52.684l-41.811,41.812l-47.006-47.247
		l23.619-23.619C1108.347,1085.669,1113.59,1076.358,1110.363,1062.041z"/>
	<polygon fill="#94D9FF" stroke="#3B79C4" stroke-miterlimit="10" points="1131.969,1217.48 1131.969,1156.129 1173.543,1114.725 
		1279.375,1113.452 1277.416,1215.396 	"/>
	<polygon fill="#94D9FF" stroke="#3B79C4" stroke-miterlimit="10" points="1051.653,1116.851 1054.488,1133.858 1060.157,1133.858 
		1082.835,1111.181 1073.764,1103.244 1060.157,1116.851 	"/>
	<polygon fill="#94D9FF" stroke="#3B79C4" stroke-miterlimit="10" points="1040.979,1101.643 1043.149,1116.851 1060.157,1116.851 
		1073.764,1103.244 1067.368,1059.213 1050.953,1062.041 1057.309,1099.004 	"/>
	<polygon fill="#94D9FF" stroke="#3B79C4" stroke-miterlimit="10" points="1033.671,1049.658 1048.818,1049.658 1057.309,1098.918 
		1040.979,1101.643 	"/>
	<path fill="#94D9FF" stroke="#3B79C4" stroke-miterlimit="10" d="M1106.525,1052.465c0,0,10.365,16.815,1.82,33.204l-25.512,25.512
		l-9.071-7.937l-6.396-44.031L1106.525,1052.465z"/>
	<polygon fill="#94D9FF" stroke="#3B79C4" stroke-miterlimit="10" points="1048.472,1041.379 1048.818,1049.658 1050.953,1062.041 
		1106.525,1052.465 1063.453,1018.007 1062.992,1041.379 	"/>
	<polygon fill="#94D9FF" stroke="#3B79C4" stroke-miterlimit="10" points="1047.893,1027.551 1048.472,1041.379 1062.992,1040.77 
		1063.266,1027.274 	"/>
	<polygon fill="#94D9FF" stroke="#3B79C4" stroke-miterlimit="10" points="1047.258,1012.411 1063.453,1018.007 1063.266,1027.274 
		1047.893,1027.551 	"/>
	<path fill="#94D9FF" stroke="#3B79C4" stroke-miterlimit="10" d="M861.732,989.292v36.85h79.369v11.339h90.708l1.86,12.179h15.146
		l-1.561-37.247c0,0-62.21-21.22-128.833-23.12H861.732z"/>
	<polyline fill="#94D9FF" stroke="#3B79C4" stroke-miterlimit="10" points="1269.921,952.441 1145.197,952.441 1145.197,1026.142 
		1162.205,1037.48 1298.268,1037.48 1301.104,986.457 1269.921,986.457 	"/>
	<line fill="none" stroke="#3B79C4" stroke-miterlimit="10" x1="656.95" y1="1218.896" x2="771.732" y2="1207.559"/>
	<path fill="none" stroke="#3B79C4" stroke-miterlimit="10" d="M1723.505,1124.564"/>
	<line fill="none" stroke="#3B79C4" stroke-miterlimit="10" x1="1003.465" y1="1184.882" x2="986.604" y2="1087.924"/>
</g>
<g id="SYMBOLS">
	<g>
		<path d="M1432.432,748.655c0.911-0.003,1.648-0.741,1.646-1.646c0.003-0.916-0.734-1.653-1.646-1.658
			c-0.908,0.005-1.646,0.742-1.646,1.658C1430.784,747.915,1431.521,748.652,1432.432,748.655L1432.432,748.655z"/>
		<path d="M1432.432,747.01"/>
		<path d="M1434.064,751.621v-1.039c0-2.214-3.265-2.189-3.269,0v4.237h0.012l-3.081,3.082c-0.295,0.291-0.33,0.304-0.898,0.304
			c-0.002,0-1.892,0-1.892,0c-1.893,0-3.03,1.705-3.035,3.152c0.005,1.442,1.144,3.271,3.21,3.269c0,0,2.562,0.002,3.352,0
			c0.797,0.002,1.758-0.301,2.556-1.051l9.829-9.794c0.207-0.191,0.323-0.249,0.688-0.245c0,0,1.353-0.004,2.43,0
			c1.164-0.004,2.816-1.328,2.812-3.233c0.005-1.894-1.66-3.152-2.918-3.151h-3.829c-0.791-0.006-1.811,0.317-2.416,0.922
			L1434.064,751.621L1434.064,751.621L1434.064,751.621z"/>
		<path fill="#FFFFFF" d="M1440.264,748.771h3.444c0.845,0.004,1.409,0.942,1.412,1.507c-0.003,0.555-0.404,1.599-1.424,1.6h-2.078
			c-0.879-0.001-1.269,0.123-1.774,0.63l-9.91,9.898c-0.396,0.406-0.903,0.565-1.553,0.561h-3.269
			c-0.843,0.005-1.581-0.705-1.576-1.634c-0.005-0.935,0.7-1.458,1.425-1.459h2.241c0.657,0.001,1.087-0.185,1.459-0.562
			l10.073-10.073C1439.15,748.828,1439.561,748.775,1440.264,748.771L1440.264,748.771z"/>
	</g>
	<g>
		<path d="M1603.573,671.145c0.911-0.003,1.648-0.74,1.646-1.646c0.004-0.916-0.733-1.654-1.646-1.658
			c-0.909,0.004-1.647,0.742-1.646,1.658C1601.926,670.404,1602.664,671.142,1603.573,671.145L1603.573,671.145z"/>
		<path d="M1603.573,669.499"/>
		<path d="M1605.207,674.11v-1.039c-0.001-2.214-3.265-2.189-3.27,0v4.236h0.013l-3.081,3.082c-0.295,0.291-0.33,0.305-0.899,0.305
			c-0.002,0-1.891,0-1.891,0c-1.895,0-3.03,1.705-3.035,3.151c0.005,1.443,1.142,3.271,3.21,3.27c0,0,2.562,0.002,3.351,0
			c0.797,0.002,1.759-0.302,2.557-1.052l9.829-9.794c0.207-0.19,0.322-0.249,0.688-0.244c0,0,1.352-0.005,2.429,0
			c1.164-0.005,2.817-1.328,2.812-3.233c0.005-1.894-1.66-3.153-2.918-3.152h-3.829c-0.791-0.005-1.812,0.318-2.416,0.922
			L1605.207,674.11L1605.207,674.11L1605.207,674.11z"/>
		<path fill="#FFFFFF" d="M1611.406,671.261h3.442c0.845,0.003,1.409,0.942,1.412,1.506c-0.003,0.556-0.403,1.6-1.424,1.601h-2.078
			c-0.879-0.001-1.268,0.123-1.773,0.63l-9.91,9.897c-0.396,0.407-0.904,0.566-1.554,0.562h-3.269
			c-0.842,0.005-1.581-0.705-1.576-1.634c-0.005-0.936,0.7-1.458,1.425-1.459h2.241c0.657,0.001,1.087-0.186,1.459-0.562
			l10.074-10.073C1610.292,671.317,1610.701,671.265,1611.406,671.261L1611.406,671.261z"/>
	</g>
	<g>
		<path d="M1419.932,498.656c0.911-0.003,1.648-0.741,1.646-1.646c0.003-0.916-0.734-1.652-1.646-1.657
			c-0.908,0.005-1.646,0.742-1.646,1.657C1418.284,497.915,1419.021,498.653,1419.932,498.656L1419.932,498.656z"/>
		<path d="M1419.932,497.01"/>
		<path d="M1421.564,501.622v-1.039c0-2.214-3.265-2.189-3.269,0v4.237h0.012l-3.081,3.082c-0.295,0.291-0.33,0.304-0.898,0.304
			c-0.002,0-1.892,0-1.892,0c-1.893,0-3.03,1.705-3.035,3.152c0.005,1.442,1.144,3.271,3.21,3.269c0,0,2.562,0.002,3.352,0
			c0.797,0.002,1.758-0.301,2.556-1.051l9.829-9.794c0.207-0.191,0.323-0.249,0.688-0.245c0,0,1.353-0.004,2.43,0
			c1.164-0.004,2.816-1.328,2.812-3.233c0.005-1.894-1.66-3.152-2.918-3.151h-3.829c-0.791-0.006-1.811,0.317-2.416,0.922
			L1421.564,501.622L1421.564,501.622L1421.564,501.622z"/>
		<path fill="#FFFFFF" d="M1427.764,498.773h3.444c0.845,0.003,1.409,0.941,1.412,1.506c-0.003,0.555-0.404,1.599-1.424,1.599
			h-2.078c-0.879,0-1.269,0.123-1.774,0.631l-9.91,9.898c-0.396,0.407-0.903,0.565-1.553,0.561h-3.269
			c-0.843,0.005-1.581-0.705-1.576-1.634c-0.005-0.935,0.7-1.458,1.425-1.459h2.241c0.657,0.001,1.087-0.185,1.459-0.561
			l10.073-10.074C1426.65,498.828,1427.061,498.776,1427.764,498.773L1427.764,498.773z"/>
	</g>
	<g>
		<path fill="#FFFFFF" stroke="#000000" stroke-width="0.72" stroke-linecap="round" stroke-linejoin="round" d="M1094.615,775.967
			h11.076c1.02,0,1.845,0.826,1.845,1.846v14.769c0,1.019-0.825,1.846-1.845,1.846h-11.076c-1.021,0-1.846-0.827-1.846-1.846l0,0
			v-14.769C1092.77,776.793,1093.594,775.967,1094.615,775.967L1094.615,775.967z"/>
		<path d="M1100.875,779.474c0.39-0.481,0.39-1.263,0-1.742c-0.389-0.482-1.021-0.482-1.412,0c-0.39,0.479-0.39,1.261,0,1.742
			C1099.854,779.956,1100.486,779.956,1100.875,779.474 M1101.423,780.285h-2.393l0,0c-0.641-0.039-1.187,0.578-1.218,1.378
			c0,0.02-0.002,0.039-0.002,0.059v4.253l0,0c0.023,0.26,0.212,0.447,0.421,0.418c0.176-0.024,0.314-0.197,0.334-0.418l0.012-3.657
			l0,0c0-0.12,0.079-0.219,0.174-0.219c0.097,0,0.174,0.098,0.174,0.219l0,0v10.014l0,0c0.017,0.365,0.267,0.644,0.56,0.624
			c0.269-0.021,0.482-0.288,0.498-0.624v-5.834l0,0c0.089-0.124,0.239-0.137,0.339-0.027c0.008,0.009,0.016,0.019,0.021,0.027v5.834
			l0,0c0.021,0.369,0.274,0.646,0.57,0.624c0.267-0.023,0.479-0.289,0.498-0.624v-10.028l0,0c-0.016-0.125,0.054-0.24,0.151-0.258
			c0.101-0.019,0.192,0.066,0.208,0.191c0.002,0.021,0.002,0.044,0,0.066v3.672l0,0c0.023,0.269,0.216,0.461,0.432,0.433
			c0.182-0.025,0.326-0.205,0.346-0.433v-4.253l0,0c0.022-0.765-0.456-1.408-1.069-1.435
			C1101.461,780.285,1101.442,780.285,1101.423,780.285z"/>
	</g>
	<g>
		<path fill="#FFFFFF" stroke="#000000" stroke-width="0.72" stroke-linecap="round" stroke-linejoin="round" d="M1170.84,807.148
			h11.076c1.02,0,1.846,0.825,1.846,1.846v14.768c0,1.02-0.826,1.847-1.846,1.847h-11.076c-1.02,0-1.846-0.827-1.846-1.847l0,0
			v-14.768C1168.994,807.974,1169.82,807.148,1170.84,807.148L1170.84,807.148z"/>
		<path d="M1177.101,810.655c0.391-0.482,0.391-1.264,0-1.743c-0.39-0.482-1.021-0.482-1.411,0c-0.391,0.479-0.391,1.261,0,1.743
			C1176.079,811.137,1176.711,811.137,1177.101,810.655 M1177.648,811.466h-2.394l0,0c-0.639-0.039-1.186,0.578-1.217,1.378
			c0,0.021-0.002,0.039-0.002,0.06v4.253l0,0c0.022,0.259,0.212,0.447,0.42,0.418c0.176-0.025,0.316-0.198,0.335-0.418l0.012-3.658
			l0,0c0-0.12,0.079-0.218,0.176-0.218c0.096,0,0.174,0.097,0.174,0.218l0,0v10.014l0,0c0.016,0.365,0.267,0.645,0.559,0.624
			c0.268-0.02,0.482-0.288,0.498-0.624v-5.834l0,0c0.088-0.124,0.238-0.137,0.338-0.026c0.008,0.009,0.016,0.018,0.021,0.026v5.834
			l0,0c0.021,0.369,0.274,0.647,0.569,0.624c0.269-0.022,0.48-0.289,0.498-0.624v-10.027l0,0c-0.014-0.125,0.056-0.24,0.152-0.259
			c0.1-0.019,0.192,0.066,0.208,0.191c0.003,0.021,0.003,0.044,0,0.067v3.672l0,0c0.021,0.268,0.216,0.461,0.431,0.432
			c0.183-0.025,0.326-0.205,0.348-0.432v-4.253l0,0c0.021-0.766-0.456-1.408-1.069-1.436
			C1177.688,811.466,1177.668,811.466,1177.648,811.466z"/>
	</g>
	<g>
		<path fill="#FFFFFF" stroke="#000000" stroke-width="0.72" stroke-linecap="round" stroke-linejoin="round" d="M1236.332,846.819
			h11.074c1.019,0,1.846,0.827,1.846,1.848v9.598c0,1.021-0.827,1.847-1.846,1.847h-11.074c-1.021,0-1.847-0.826-1.847-1.847l0,0
			v-9.598C1234.485,847.646,1235.312,846.819,1236.332,846.819L1236.332,846.819z"/>
		<path d="M1239.297,853.098l-0.047-0.752l0,0c-1.279,0.628-2.089,1.822-2.125,3.135l0,0c0.146,1.805,1.787,3.215,3.797,3.26l0,0
			c1.444-0.041,2.756-0.774,3.438-1.922l-0.477-0.92l0,0c-0.352,1.192-1.501,2.057-2.869,2.15l0,0
			c-1.64,0.061-3.031-1.073-3.134-2.548l0,0C1237.805,854.521,1238.354,853.589,1239.297,853.098z M1240.317,850.046l0.186,2.133
			h2.787v0.71h-2.694l0.095,0.71h3.62l1.58,3.262l1.254-0.46l0.23,0.584l-2.043,0.754l-1.578-3.344l-3.854-0.043l-0.465-4.806l0,0
			c-0.238-0.442-0.032-0.975,0.457-1.188c0.491-0.216,1.084-0.03,1.321,0.411c0.236,0.441,0.031,0.974-0.459,1.188
			C1240.619,850.017,1240.469,850.048,1240.317,850.046z"/>
	</g>
	<g>
		<path fill="#FFFFFF" stroke="#000000" stroke-width="0.72" stroke-linecap="round" stroke-linejoin="round" d="M1140.767,775.731
			h11.075c1.02,0,1.846,0.826,1.846,1.846v15.24c0,1.019-0.826,1.846-1.846,1.846h-11.075c-1.019,0-1.846-0.827-1.846-1.846l0,0
			v-15.24C1138.921,776.559,1139.749,775.731,1140.767,775.731L1140.767,775.731z"/>
		<path d="M1147.376,779.783h-1.974l0,0c-0.305,0.053-0.579,0.254-0.767,0.565l0,0c-0.157,0.311-0.27,0.652-0.337,1.013
			l-0.917,3.601l0,0c-0.043,0.265,0.089,0.523,0.296,0.577c0.156,0.04,0.315-0.047,0.401-0.219l0.958-3.706l0,0
			c0.062-0.113,0.186-0.14,0.273-0.058c0.043,0.038,0.071,0.097,0.079,0.161l-1.45,6.042h1.312v4.823l0,0
			c0.065,0.321,0.321,0.511,0.571,0.428c0.163-0.056,0.291-0.219,0.334-0.428v-4.823h0.312v4.823l0,0
			c0.07,0.321,0.33,0.507,0.581,0.416c0.158-0.056,0.28-0.213,0.325-0.416v-4.823h1.381l-1.346-5.937l0,0
			c0.021-0.154,0.134-0.256,0.254-0.229c0.039,0.009,0.076,0.031,0.105,0.063l0.823,3.572l0,0c0.122,0.26,0.384,0.343,0.586,0.187
			c0.146-0.112,0.228-0.326,0.204-0.543l-0.939-3.721l0,0c-0.046-0.253-0.133-0.492-0.256-0.699l0,0
			C1147.987,780.117,1147.7,779.879,1147.376,779.783z M1147.135,778.941c0.385-0.481,0.385-1.261,0-1.74
			c-0.383-0.48-1.003-0.48-1.387,0c-0.384,0.479-0.384,1.259,0,1.74C1146.131,779.421,1146.751,779.421,1147.135,778.941"/>
	</g>
	<g>
		<path fill="#FFFFFF" stroke="#000000" stroke-width="0.72" stroke-linecap="round" stroke-linejoin="round" d="M1186.839,856.062
			h11.075c1.019,0,1.846,0.826,1.846,1.847v15.24c0,1.019-0.827,1.846-1.846,1.846h-11.075c-1.019,0-1.846-0.827-1.846-1.846l0,0
			v-15.24C1184.993,856.89,1185.82,856.062,1186.839,856.062L1186.839,856.062z"/>
		<path d="M1193.448,860.114h-1.975l0,0c-0.304,0.053-0.579,0.254-0.766,0.565l0,0c-0.157,0.312-0.271,0.652-0.337,1.013
			l-0.917,3.602l0,0c-0.043,0.265,0.089,0.523,0.296,0.576c0.156,0.041,0.314-0.047,0.401-0.219l0.958-3.706l0,0
			c0.062-0.112,0.186-0.14,0.273-0.058c0.042,0.038,0.071,0.097,0.079,0.161l-1.451,6.041h1.312v4.823l0,0
			c0.064,0.321,0.321,0.511,0.571,0.428c0.162-0.056,0.291-0.219,0.334-0.428v-4.823h0.312v4.823l0,0
			c0.07,0.321,0.33,0.507,0.58,0.416c0.158-0.056,0.281-0.214,0.325-0.416v-4.823h1.382l-1.348-5.937l0,0
			c0.021-0.154,0.135-0.256,0.256-0.229c0.038,0.009,0.074,0.031,0.104,0.062l0.823,3.571l0,0c0.122,0.261,0.384,0.345,0.587,0.188
			c0.146-0.112,0.227-0.326,0.203-0.543l-0.94-3.722l0,0c-0.046-0.253-0.134-0.491-0.256-0.699l0,0
			C1194.059,860.448,1193.771,860.21,1193.448,860.114z M1193.207,859.271c0.383-0.479,0.383-1.26,0-1.739
			c-0.384-0.479-1.004-0.479-1.388,0s-0.384,1.26,0,1.739C1192.203,859.752,1192.823,859.753,1193.207,859.271"/>
	</g>
	<g>
		<path fill="#FFFFFF" stroke="#000000" stroke-width="0.72" stroke-linecap="round" stroke-linejoin="round" d="M726.812,351.591
			h11.075c1.021,0,1.846,0.826,1.846,1.847v14.768c0,1.019-0.825,1.846-1.846,1.846h-11.075c-1.021,0-1.847-0.827-1.847-1.846l0,0
			v-14.768C724.966,352.417,725.791,351.591,726.812,351.591L726.812,351.591z"/>
		<path d="M733.072,355.098c0.39-0.481,0.39-1.263,0-1.742c-0.39-0.482-1.021-0.482-1.412,0c-0.391,0.479-0.391,1.261,0,1.742
			C732.05,355.58,732.683,355.58,733.072,355.098 M733.62,355.909h-2.394l0,0c-0.64-0.039-1.186,0.578-1.217,1.378
			c0,0.02-0.002,0.039-0.002,0.059v4.253l0,0c0.023,0.26,0.211,0.447,0.42,0.418c0.176-0.024,0.315-0.197,0.334-0.418l0.013-3.657
			l0,0c0-0.12,0.078-0.219,0.174-0.219c0.097,0,0.174,0.098,0.174,0.219l0,0v10.014l0,0c0.017,0.365,0.267,0.644,0.559,0.624
			c0.27-0.021,0.483-0.288,0.499-0.624v-5.834l0,0c0.088-0.124,0.239-0.137,0.338-0.027c0.009,0.009,0.017,0.019,0.022,0.027v5.834
			l0,0c0.021,0.369,0.274,0.646,0.57,0.624c0.267-0.023,0.479-0.289,0.498-0.624v-10.028l0,0c-0.016-0.125,0.054-0.239,0.151-0.258
			c0.101-0.019,0.192,0.066,0.208,0.191c0.002,0.021,0.002,0.044,0,0.066v3.672l0,0c0.023,0.269,0.216,0.461,0.432,0.433
			c0.182-0.025,0.325-0.205,0.346-0.433v-4.253l0,0c0.022-0.765-0.456-1.407-1.069-1.435
			C733.658,355.909,733.639,355.909,733.62,355.909z"/>
	</g>
	<g>
		<path fill="#FFFFFF" stroke="#000000" stroke-width="0.72" stroke-linecap="round" stroke-linejoin="round" d="M655.226,333.512
			H666.3c1.02,0,1.847,0.827,1.847,1.849v9.598c0,1.02-0.827,1.846-1.847,1.846h-11.074c-1.021,0-1.847-0.826-1.847-1.846l0,0
			v-9.598C653.379,334.339,654.206,333.512,655.226,333.512L655.226,333.512z"/>
		<path d="M658.191,339.79l-0.048-0.752l0,0c-1.278,0.628-2.089,1.822-2.125,3.134l0,0c0.146,1.805,1.787,3.215,3.798,3.26l0,0
			c1.443-0.041,2.756-0.773,3.437-1.922l-0.476-0.92l0,0c-0.353,1.193-1.501,2.058-2.869,2.151l0,0
			c-1.641,0.06-3.032-1.073-3.134-2.548l0,0C656.699,341.215,657.248,340.281,658.191,339.79z M659.211,336.738l0.186,2.133h2.787
			v0.71h-2.693l0.094,0.71h3.621l1.58,3.261l1.253-0.46l0.23,0.584l-2.043,0.754l-1.577-3.344l-3.854-0.042l-0.465-4.806l0,0
			c-0.238-0.443-0.032-0.976,0.458-1.188c0.491-0.215,1.083-0.03,1.32,0.411c0.236,0.442,0.031,0.974-0.459,1.188
			C659.513,336.709,659.363,336.74,659.211,336.738z"/>
	</g>
	<g>
		<path fill="#FFFFFF" stroke="#000000" stroke-width="0.72" stroke-linecap="round" stroke-linejoin="round" d="M738.802,428.816
			h11.075c1.02,0,1.846,0.826,1.846,1.846v15.24c0,1.019-0.826,1.846-1.846,1.846h-11.075c-1.019,0-1.846-0.827-1.846-1.846l0,0
			v-15.24C736.956,429.644,737.783,428.816,738.802,428.816L738.802,428.816z"/>
		<path d="M745.411,432.868h-1.974l0,0c-0.305,0.053-0.579,0.254-0.767,0.565l0,0c-0.157,0.311-0.27,0.652-0.337,1.013l-0.917,3.601
			l0,0c-0.043,0.266,0.089,0.523,0.296,0.577c0.156,0.04,0.315-0.047,0.401-0.219l0.958-3.706l0,0
			c0.062-0.113,0.186-0.14,0.273-0.058c0.042,0.038,0.071,0.097,0.079,0.161l-1.451,6.042h1.312v4.823l0,0
			c0.065,0.321,0.321,0.511,0.571,0.428c0.163-0.056,0.291-0.219,0.334-0.428v-4.823h0.312v4.823l0,0
			c0.07,0.321,0.33,0.507,0.581,0.416c0.158-0.056,0.28-0.213,0.325-0.416v-4.823h1.381l-1.346-5.937l0,0
			c0.021-0.154,0.134-0.256,0.254-0.229c0.039,0.01,0.076,0.031,0.104,0.063l0.824,3.572l0,0c0.122,0.26,0.384,0.343,0.586,0.187
			c0.146-0.112,0.228-0.326,0.204-0.543l-0.94-3.721l0,0c-0.046-0.253-0.133-0.492-0.256-0.699l0,0
			C746.021,433.202,745.735,432.964,745.411,432.868z M745.169,432.026c0.384-0.481,0.384-1.261,0-1.74
			c-0.383-0.48-1.003-0.48-1.387,0c-0.384,0.479-0.384,1.259,0,1.74C744.166,432.506,744.786,432.506,745.169,432.026"/>
	</g>
</g>
<g id="UNIT_NO">
	<text transform="matrix(1 0 0 1 798.3608 1024.4727)" font-family="'ArialMT'" font-size="12">01-01/02</text>
	<text transform="matrix(1 0 0 1 764.3452 1075.4961)" font-family="'ArialMT'" font-size="12">01-03/04</text>
	<text transform="matrix(1 0 0 1 789.6938 1115.1807)" font-family="'ArialMT'" font-size="12">01-05</text>
	<text transform="matrix(1 0 0 1 823.7095 1171.874)" font-family="'ArialMT'" font-size="12">01-06</text>
	<text transform="matrix(1 0 0 1 642.292 406.5195)" font-family="'ArialMT'" font-size="12">01-22</text>
	<text transform="matrix(1 0 0 1 653.6309 451.874)" font-family="'ArialMT'" font-size="12">01-23</text>
	<text transform="matrix(1 0 0 1 670.6387 505.7324)" font-family="'ArialMT'" font-size="12">01-24</text>
	<text transform="matrix(1 0 0 1 676.3081 553.9214)" font-family="'ArialMT'" font-size="12">01-25</text>
	<text transform="matrix(1 0 0 1 744.3394 599.2754)" font-family="'ArialMT'" font-size="12">01-26</text>
	<text transform="matrix(1 0 0 1 801.0322 570.9292)" font-family="'ArialMT'" font-size="12">01-27</text>
	<text transform="matrix(1 0 0 1 1059.1479 497.2285)" font-family="'ArialMT'" font-size="12">01-28/29</text>
	<text transform="matrix(1 0 0 1 1101.5049 689.9844)" font-family="'ArialMT'" font-size="12">01-30</text>
	<text transform="matrix(1 0 0 1 903.2427 741.0078)" font-family="'ArialMT'" font-size="12">01-31/32</text>
	<text transform="matrix(1 0 0 1 818.04 724)" font-family="'ArialMT'" font-size="12">01-33</text>
	<text transform="matrix(1 0 0 1 755.6777 724)" font-family="'ArialMT'" font-size="12">01-34</text>
	<text transform="matrix(1 0 0 1 801.0322 786.3623)" font-family="'ArialMT'" font-size="12">01-35</text>
	<text transform="matrix(1 0 0 1 804.0303 843.0557)" font-family="'ArialMT'" font-size="12">01-36/37</text>
	<text transform="matrix(1 0 0 1 982.4497 888.4092)" font-family="'ArialMT'" font-size="12">01-38</text>
	<text transform="matrix(1 0 0 1 1192.3765 996.126)" font-family="'ArialMT'" font-size="12">01-39/42</text>
	<text transform="matrix(1 0 0 1 1316.9375 993.291)" font-family="'ArialMT'" font-size="12">01-43</text>
	<text transform="matrix(1 0 0 1 1382.2979 945.1025)" font-family="'ArialMT'" font-size="12">01-44/46</text>
	<text transform="matrix(1 0 0 1 1498.3555 882.7402)" font-family="'ArialMT'" font-size="12">01-47</text>
	<text transform="matrix(1 0 0 1 1603.4004 899.748)" font-family="'ArialMT'" font-size="12">01-48/50</text>
	<text transform="matrix(1 0 0 1 1756.4707 899.748)" font-family="'ArialMT'" font-size="12">01-51/52</text>
	<text transform="matrix(1 0 0 1 1776.1504 1013.1338)" font-family="'ArialMT'" font-size="12">01-53</text>
	<text transform="matrix(1 0 0 1 1875.5264 1007.4639)" font-family="'ArialMT'" font-size="12">01-54/55</text>
	<text transform="matrix(1 0 0 1 1977.5732 1007.4639)" font-family="'ArialMT'" font-size="12">01-56/58</text>
	<text transform="matrix(1 0 0 1 1841.5098 1126.5195)" font-family="'ArialMT'" font-size="12">01-59/60</text>
	<text transform="matrix(1 0 0 1 1759.1426 1132.1885)" font-family="'ArialMT'" font-size="12">01-61</text>
	<text transform="matrix(1 0 0 1 1404.9746 1154.8662)" font-family="'ArialMT'" font-size="12">01-62/63</text>
	<text transform="matrix(1 0 0 1 1314.2656 1177.5439)" font-family="'ArialMT'" font-size="12">01-64/65</text>
	<text transform="matrix(1 0 0 1 1189.542 1183.2129)" font-family="'ArialMT'" font-size="12">01-66/69</text>
	<text transform="matrix(1 0 0 1 1108.8413 1109.5117)" font-family="'ArialMT'" font-size="12">01-70A</text>
	<text transform="matrix(1 0 0 1 1078.8276 1075.4961)" font-family="'ArialMT'" font-size="12">01-70</text>
	<text transform="matrix(1 0 0 1 1061.8198 1052.8193)" font-family="'ArialMT'" font-size="12">01-71</text>
	<text transform="matrix(1 0 0 1 917.416 1018.8037)" font-family="'ArialMT'" font-size="12">01-72/73</text>
	<text transform="matrix(1 0 0 1 596.938 1143.5283)" font-family="'ArialMT'" font-size="12">01-07</text>
	<text transform="matrix(1 0 0 1 568.5913 1075.4961)" font-family="'ArialMT'" font-size="12">01-08</text>
	<text transform="matrix(1 0 0 1 514.896 996.126)" font-family="'ArialMT'" font-size="12">01-09/10</text>
	<text transform="matrix(1 0 0 1 512.3438 896.9131)" font-family="'ArialMT'" font-size="12">01-1</text>
	<text transform="matrix(1 0 0 1 535.4707 896.9131)" font-family="'ArialMT'" font-size="12">1</text>
	<text transform="matrix(1 0 0 1 500.5596 843.0557)" font-family="'ArialMT'" font-size="12">01-12</text>
	<text transform="matrix(1 0 0 1 480.8804 792.0312)" font-family="'ArialMT'" font-size="12">01-13/14</text>
	<text transform="matrix(1 0 0 1 460.8745 724)" font-family="'ArialMT'" font-size="12">01-15</text>
	<text transform="matrix(1 0 0 1 435.5259 616.2832)" font-family="'ArialMT'" font-size="12">01-16/17</text>
	<text transform="matrix(1 0 0 1 460.8745 542.5825)" font-family="'ArialMT'" font-size="12">01-18</text>
	<text transform="matrix(1 0 0 1 443.8667 485.8896)" font-family="'ArialMT'" font-size="12">01-19</text>
	<text transform="matrix(1 0 0 1 384.5024 434.8662)" font-family="'ArialMT'" font-size="12">01-20/21</text>
</g>
</svg>
