<?xml version="1.0" encoding="utf-8"?>
<!-- Generator: Adobe Illustrator 15.1.0, SVG Export Plug-In . SVG Version: 6.00 Build 0)  -->
<!DOCTYPE svg PUBLIC "-//W3C//DTD SVG 1.1 Basic//EN" "http://www.w3.org/Graphics/SVG/1.1/DTD/svg11-basic.dtd" [
	<!ENTITY ns_flows "http://ns.adobe.com/Flows/1.0/">
	<!ENTITY ns_extend "http://ns.adobe.com/Extensibility/1.0/">
	<!ENTITY ns_ai "http://ns.adobe.com/AdobeIllustrator/10.0/">
	<!ENTITY ns_graphs "http://ns.adobe.com/Graphs/1.0/">
]>
<svg version="1.1" baseProfile="basic" id="Layer_1" xmlns:x="&ns_extend;" xmlns:i="&ns_ai;" xmlns:graph="&ns_graphs;"
	 xmlns="http://www.w3.org/2000/svg" xmlns:xlink="http://www.w3.org/1999/xlink" xmlns:a="http://ns.adobe.com/AdobeSVGViewerExtensions/3.0/"
	 x="0px" y="0px" width="1832.882px" height="935.434px" viewBox="0 0 1832.882 935.434" xml:space="preserve">
<path fill="#94D9FF" stroke="#3B79C4" stroke-miterlimit="10" d="M1017.637,99.213V65.195h22.205v25.514h25.984V62.36h-5.67V0
	h204.096v39.686h164.408c0,0,146.07,12.608,159.543,175.748c0,0-0.559,156.361-159.543,181.418h-48.896v-85.039h37.561
	c0,0,79.719-16.85,79.369-95.711c0,0,1.609-70.969-79.369-87.916l-306.145-0.626l-0.17-28.319L1017.637,99.213z"/>
<polygon fill="#94D9FF" stroke="#3B79C4" stroke-miterlimit="10" points="1009.133,587.818 997.795,587.697 998.02,566.962 
	1009.592,567.087 "/>
<polygon fill="#94D9FF" stroke="#3B79C4" stroke-miterlimit="10" points="1045.985,476.753 1046.014,567.451 994.961,566.929 
	997.057,476.753 "/>
<polygon fill="#94D9FF" stroke="#3B79C4" stroke-miterlimit="10" points="1045.985,476.753 1201.889,476.753 1201.889,555.591 
	1083.78,555.591 1083.575,567.886 1046.014,567.451 "/>
<path fill="#94D9FF" stroke="#3B79C4" stroke-miterlimit="10" d="M1116.872,890.648l4.748-101.719l74.602-0.898l20.635,26.457
	c0,0-37.627,28.932-60.318,75.594L1116.872,890.648z"/>
<polygon fill="#94D9FF" stroke="#3B79C4" stroke-miterlimit="10" points="1007.249,790.302 1005.29,892.248 1116.872,890.648 
	1121.62,788.929 "/>
<polygon fill="#94D9FF" stroke="#3B79C4" stroke-miterlimit="10" points="589.606,720 589.606,702.992 598.11,702.992 
	598.11,720.455 "/>
<polygon fill="#94D9FF" stroke="#3B79C4" stroke-miterlimit="10" points="589.606,720 598.11,720.455 604.823,747.144 
	597.755,748.191 "/>
<polygon fill="#94D9FF" stroke="#3B79C4" stroke-miterlimit="10" points="501.732,666.142 501.732,731.339 549.921,725.669 
	558.169,754.054 597.755,748.191 589.606,720 589.606,666.142 "/>
<path fill="#94D9FF" stroke="#3B79C4" stroke-miterlimit="10" d="M481.89,765.355c0,0-26.119-43.646,0-99.213h19.845v65.197
	l48.188-5.67l8.248,28.385L481.89,765.355z"/>
<path fill="#94D9FF" stroke="#3B79C4" stroke-miterlimit="10" d="M481.89,765.355c0,0,14.229,20.496,14.176,53.857l76.533-8.504
	L561.918,753.5L481.89,765.355z"/>
<polygon fill="#94D9FF" stroke="#3B79C4" stroke-miterlimit="10" points="683.149,735.652 689.215,769.353 714.477,764.775 
	708.661,731.339 "/>
<polygon fill="#94D9FF" stroke="#3B79C4" stroke-miterlimit="10" points="618.413,745.13 624.847,779.447 689.215,769.353 
	683.149,735.652 "/>
<polygon fill="#94D9FF" stroke="#3B79C4" stroke-miterlimit="10" points="496.063,819.212 493.228,850.394 501.732,895.748 
	643.465,878.74 620.328,753.023 587.153,758.552 585.88,749.951 561.918,753.5 572.599,810.242 "/>
<polygon fill="#94D9FF" stroke="#3B79C4" stroke-miterlimit="10" points="585.88,749.951 587.153,758.552 620.027,753.74 
	618.413,745.13 "/>
<polygon fill="#94D9FF" stroke="#3B79C4" stroke-miterlimit="10" points="1031.272,621.98 1026.141,714.332 1088.504,714.332 
	1094.172,612.285 1054.489,612.285 1054.489,622.488 "/>
<polygon fill="#94D9FF" stroke="#3B79C4" stroke-miterlimit="10" points="1031.811,612.285 1031.272,621.98 1054.489,622.488 
	1054.489,612.285 "/>
<polygon fill="#94D9FF" stroke="#3B79C4" stroke-miterlimit="10" points="997.795,612.283 997.795,663.308 1028.977,663.308 
	1031.811,612.285 "/>
<polygon fill="#94D9FF" stroke="#3B79C4" stroke-miterlimit="10" points="1082.834,612.285 1083.78,555.591 1201.889,555.591 
	1201.889,632.126 1116.85,714.332 1088.504,714.332 1094.172,612.283 "/>
<polygon fill="#94D9FF" stroke="#3B79C4" stroke-miterlimit="10" points="97.004,240.207 171.093,227.232 174.265,243.781 
	242.746,230.562 263.622,333.355 121.843,355.533 "/>
<polygon opacity="0.5" fill="#94D9FF" stroke="#3B79C4" stroke-miterlimit="10" points="164.339,192.005 89.473,205.24 
	97.004,240.207 171.093,227.232 "/>
<polygon fill="#94D9FF" stroke="#3B79C4" stroke-miterlimit="10" points="164.339,192.005 232.863,181.9 242.746,230.562 
	174.265,243.781 "/>
<polygon fill="#94D9FF" stroke="#3B79C4" stroke-miterlimit="10" points="153.071,133.229 220.359,120.328 232.863,181.9 
	164.339,192.005 "/>
<polygon fill="#94D9FF" stroke="#3B79C4" stroke-miterlimit="10" points="62.362,79.37 207.646,57.732 220.359,120.328 
	153.071,133.229 164.339,192.005 89.473,205.24 "/>
<path fill="#94D9FF" stroke="#3B79C4" stroke-miterlimit="10" d="M476.221,481.89h192.756v56.693h-85.041v28.346h-79.367
	C504.567,566.929,499.843,524.41,476.221,481.89z"/>
<path fill="#94D9FF" stroke="#3B79C4" stroke-miterlimit="10" d="M505.984,617.955c0,0,2.308-19.834-1.417-51.023h79.369v-28.346
	h85.039V481.89h48.188v5.67h172.914v34.016h17.008v34.018h-15.307v25.512h-18.709v28.064H595.275v8.785H505.984L505.984,617.955z"/>
<path fill="#94D9FF" stroke="#3B79C4" stroke-miterlimit="10" d="M446.773,430.867c0,0,4.99,24.84,29.445,51.023H623.62v-51.023
	H446.773z"/>
<polygon fill="#94D9FF" stroke="#3B79C4" stroke-miterlimit="10" points="544.252,362.835 578.268,362.835 580.63,430.867 
	549.921,430.867 "/>
<path fill="#94D9FF" stroke="#3B79C4" stroke-miterlimit="10" d="M447.874,362.835c0,0-11.169,31.988-1.1,68.029H549.92
	l-5.669-68.029H447.874z"/>
<rect x="775.559" y="364.537" fill="#94D9FF" stroke="#3B79C4" stroke-miterlimit="10" width="9.639" height="20.977"/>
<rect x="767.055" y="430.867" fill="#94D9FF" stroke="#3B79C4" stroke-miterlimit="10" width="18.143" height="5.67"/>
<rect x="771.024" y="459.212" fill="#94D9FF" stroke="#3B79C4" stroke-miterlimit="10" width="17.008" height="17.008"/>
<polygon opacity="0.5" fill="#94D9FF" stroke="#3B79C4" stroke-miterlimit="10" points="717.165,459.337 717.165,487.685 
	788.032,487.685 788.032,476.345 771.024,476.345 771.024,459.337 "/>
<rect x="737.008" y="429.857" fill="#94D9FF" stroke="#3B79C4" stroke-miterlimit="10" width="17.008" height="3.969"/>
<rect x="717.165" y="429.857" fill="#94D9FF" stroke="#3B79C4" stroke-miterlimit="10" width="19.844" height="3.969"/>
<polygon fill="#94D9FF" stroke="#3B79C4" stroke-miterlimit="10" points="578.268,362.96 580.63,430.992 623.622,430.992 
	623.622,482.015 717.165,482.015 717.165,429.857 764.928,429.857 765.354,396.976 771.024,396.976 771.024,391.306 
	685.985,391.306 685.985,362.96 "/>
<rect x="768.188" y="400.66" fill="#94D9FF" stroke="#3B79C4" stroke-miterlimit="10" width="17.008" height="26.646"/>
<polygon opacity="0.5" fill="#94D9FF" stroke="#3B79C4" stroke-miterlimit="10" points="685.985,362.96 685.985,391.306 
	771.024,391.306 771.024,396.976 765.354,396.976 764.928,429.857 767.055,430.992 785.198,430.992 785.196,427.306 
	768.188,427.306 768.188,400.66 785.196,400.66 785.196,385.636 775.559,385.636 775.559,364.662 785.196,364.662 785.198,362.96 
	"/>
<line fill="none" stroke="#3B79C4" stroke-miterlimit="10" x1="805.04" y1="487.56" x2="788.032" y2="487.685"/>
<rect x="805.04" y="436.537" fill="#94D9FF" stroke="#3B79C4" stroke-miterlimit="10" width="45.354" height="51.023"/>
<polygon fill="#94D9FF" stroke="#3B79C4" stroke-miterlimit="10" points="850.393,436.537 850.393,487.56 855.836,487.56 
	855.766,436.535 "/>
<rect x="890.079" y="436.535" fill="#94D9FF" stroke="#3B79C4" stroke-miterlimit="10" width="90.709" height="17.012"/>
<rect x="890.079" y="481.89" fill="#94D9FF" stroke="#3B79C4" stroke-miterlimit="10" width="28.346" height="17.008"/>
<rect x="946.77" y="481.89" fill="#94D9FF" stroke="#3B79C4" stroke-miterlimit="10" width="34.018" height="22.678"/>
<rect x="890.079" y="453.544" fill="#94D9FF" stroke="#3B79C4" stroke-miterlimit="10" width="90.709" height="28.346"/>
<polygon fill="#94D9FF" stroke="#3B79C4" stroke-miterlimit="10" points="855.766,436.535 855.836,487.56 890.079,487.56 
	890.079,436.535 "/>
<rect x="958.11" y="521.576" fill="#94D9FF" stroke="#3B79C4" stroke-miterlimit="10" width="22.678" height="17.48"/>
<polygon fill="#94D9FF" stroke="#3B79C4" stroke-miterlimit="10" points="890.079,498.898 918.424,498.898 918.424,481.89 
	946.77,481.89 946.77,504.568 980.788,504.568 980.788,521.576 958.11,521.576 958.11,527.244 907.086,527.244 907.086,521.576 
	890.079,521.576 "/>
<polygon fill="#94D9FF" stroke="#3B79C4" stroke-miterlimit="10" points="907.086,527.244 958.11,527.244 958.11,539.056 
	980.788,539.056 980.788,555.591 963.78,555.591 963.78,566.929 907.086,566.929 "/>
<polygon fill="#94D9FF" stroke="#3B79C4" stroke-miterlimit="10" points="980.788,555.591 980.788,571.464 891.78,571.464 
	891.78,555.591 906.967,555.49 907.086,566.929 963.78,566.929 963.78,555.591 "/>
<rect x="901.417" y="600.945" fill="#94D9FF" stroke="#3B79C4" stroke-miterlimit="10" width="68.033" height="5.197"/>
<polygon fill="#94D9FF" stroke="#3B79C4" stroke-miterlimit="10" points="890.079,595.275 901.417,595.275 901.417,606.142 
	907.086,606.142 907.086,616.064 890.079,616.064 "/>
<polygon fill="#94D9FF" stroke="#3B79C4" stroke-miterlimit="10" points="963.78,606.142 963.78,615.119 980.788,615.119 
	980.788,595.275 969.45,595.275 969.45,606.142 "/>
<path fill="#94D9FF" stroke="#3B79C4" stroke-miterlimit="10" d="M1451.379,801.416l15.295-24.725h75.373l-5.293,73.195
	c0,0-28.068,0.225-55.545-26.025C1481.209,823.863,1463.399,807.875,1451.379,801.416z"/>
<path fill="#94D9FF" stroke="#3B79C4" stroke-miterlimit="10" d="M1542.047,776.693l-5.293,73.195c0,0,69.213,4.338,138.15-30.904
	l-19.475-42.291H1542.047L1542.047,776.693z"/>
<path fill="#94D9FF" stroke="#3B79C4" stroke-miterlimit="10" d="M1668.211,804.445l67.309-57.188l16.291,18.1
	c0,0-33.594,33.121-76.904,53.629L1668.211,804.445z"/>
<polygon fill="#94D9FF" stroke="#3B79C4" stroke-miterlimit="10" points="1760.315,572.599 1763.149,569.763 1791.497,603.779 
	1788.661,606.615 "/>
<polygon fill="#94D9FF" stroke="#3B79C4" stroke-miterlimit="10" points="1794.331,600.945 1786.11,609.166 1794.217,617.273 
	1802.834,609.449 "/>
<polygon fill="#94D9FF" stroke="#3B79C4" stroke-miterlimit="10" points="1759.749,560.693 1752.321,568.121 1757.877,575.037 
	1765.985,566.929 "/>
<polygon fill="#94D9FF" stroke="#3B79C4" stroke-miterlimit="10" points="1805.45,676.289 1818.141,664.441 1808.504,654.804 
	1817.008,646.3 1832.881,666.142 1812.348,683.957 "/>
<polygon fill="#94D9FF" stroke="#3B79C4" stroke-miterlimit="10" points="281.472,415.501 170.079,430.867 172.246,441.302 
	177.843,439.74 193.14,507.523 297.849,491.699 "/>
<polygon fill="#94D9FF" stroke="#3B79C4" stroke-miterlimit="10" points="193.14,507.523 201.178,544.843 306.12,530.185 
	297.849,491.699 "/>
<polygon fill="#94D9FF" stroke="#3B79C4" stroke-miterlimit="10" points="201.178,544.843 214.322,605.873 319.718,593.449 
	306.12,530.185 "/>
<path fill="#94D9FF" stroke="#3B79C4" stroke-miterlimit="10" d="M296.507,909.126l-18.712,3.629l-28.346-107.715l22.752-3.221
	l-5.312-23.438l-51.459,9.648l-34.016-137.773h42.466l-45.3-210.32l-36.851,7.939l-2.681-12.447l-40.18,5.484l110.893,494.521
	l90.11-11.441L296.507,909.126z M108.426,483.523l55.983-12.553l33.939,151.355l-56.658,9.549L108.426,483.523z"/>
<polygon fill="#94D9FF" stroke="#3B79C4" stroke-miterlimit="10" points="267.189,872.455 287.666,870.097 296.507,909.126 
	277.795,912.755 "/>
<polygon fill="#94D9FF" stroke="#3B79C4" stroke-miterlimit="10" points="312.18,803.228 319.648,843.056 351.496,839.056 
	367.187,915.443 388.347,912.755 362.983,794.751 "/>
<polygon fill="#94D9FF" stroke="#3B79C4" stroke-miterlimit="10" points="263.082,763.24 266.892,778.382 306.142,771.023 
	312.18,803.228 362.983,794.751 347.577,723.068 279.045,731.927 283.383,759.701 "/>
<polygon fill="#94D9FF" stroke="#3B79C4" stroke-miterlimit="10" points="214.322,605.873 223.883,650.257 181.417,650.257 
	203.978,741.632 347.577,723.068 319.718,593.449 "/>
<polygon opacity="0.5" fill="#94D9FF" stroke="#3B79C4" stroke-miterlimit="10" points="203.725,740.611 279.309,731.927 
	283.769,759.685 211.309,771.332 "/>
<polygon fill="#94D9FF" stroke="#3B79C4" stroke-miterlimit="10" points="241.115,766.642 243.953,782.685 266.892,778.384 
	263.271,762.98 "/>
<polygon fill="#94D9FF" stroke="#3B79C4" stroke-miterlimit="10" points="211.309,771.332 215.433,788.033 243.953,782.685 
	241.015,766.08 "/>
<polygon fill="#94D9FF" stroke="#3B79C4" stroke-miterlimit="10" points="311.812,844.724 351.496,839.056 367.187,915.443 
	327.771,920.449 "/>
<polygon opacity="0.5" fill="#94D9FF" stroke="#3B79C4" stroke-miterlimit="10" points="282.744,848.367 311.812,844.724 
	327.771,920.449 299.874,923.992 "/>
<polygon fill="#94D9FF" stroke="#3B79C4" stroke-miterlimit="10" points="259.926,844.851 271.075,843.925 277.12,871.312 
	267.189,872.455 "/>
<polygon fill="#94D9FF" stroke="#3B79C4" stroke-miterlimit="10" points="271.075,843.925 281.541,843.056 287.666,870.097 
	277.12,871.312 "/>
<polygon fill="#94D9FF" stroke="#3B79C4" stroke-miterlimit="10" points="249.449,805.041 272.201,801.822 281.541,843.056 
	259.926,844.851 "/>
<polygon opacity="0.5" fill="#94D9FF" stroke="#3B79C4" stroke-miterlimit="10" points="266.892,778.384 306.142,771.023 
	310.887,796.33 272.378,802.605 "/>
<polygon opacity="0.5" fill="#94D9FF" stroke="#3B79C4" stroke-miterlimit="10" points="278.687,830.451 316.152,824.414 
	319.687,843.265 282.744,848.367 "/>
<polygon opacity="0.5" fill="#94D9FF" stroke="#3B79C4" stroke-miterlimit="10" points="310.887,796.33 272.378,802.605 
	278.687,830.451 316.152,824.414 "/>
<polygon fill="#94D9FF" stroke="#3B79C4" stroke-miterlimit="10" points="127.941,383.845 87.291,389.267 98.871,440.914 
	139.051,435.427 "/>
<polygon fill="#94D9FF" stroke="#3B79C4" stroke-miterlimit="10" points="127.09,379.892 141.732,447.875 172.246,441.302 
	170.079,430.867 281.472,415.501 269.291,358.832 "/>
<polygon fill="#94D9FF" stroke="#3B79C4" stroke-miterlimit="10" points="108.426,483.523 164.409,470.97 198.351,622.328 
	141.693,631.875 "/>
<polygon fill="#94D9FF" stroke="#3B79C4" stroke-miterlimit="10" points="890.079,394.015 890.079,419.527 980.788,419.527 
	980.788,393.544 "/>
<polygon fill="#94D9FF" stroke="#3B79C4" stroke-miterlimit="10" points="890.079,365.669 980.788,365.669 980.788,393.544 
	890.079,394.015 "/>
<rect x="1122.52" y="391.181" opacity="0.5" fill="#94D9FF" stroke="#3B79C4" stroke-miterlimit="10" width="79.369" height="85.572"/>
<polygon fill="#94D9FF" stroke="#3B79C4" stroke-miterlimit="10" points="1201.889,632.126 1201.889,476.753 1281.26,476.753 
	1275.59,632.126 "/>
<polygon fill="#94D9FF" stroke="#3B79C4" stroke-miterlimit="10" points="1201.801,430.777 1201.801,476.664 1281.17,476.664 
	1281.891,430.777 "/>
<rect x="1077.077" y="391.093" fill="#94D9FF" stroke="#3B79C4" stroke-miterlimit="10" width="45.354" height="85.57"/>
<polygon fill="#94D9FF" stroke="#3B79C4" stroke-miterlimit="10" points="1281.846,454.375 1279.834,498.425 1368.014,497.035 
	1371.918,454.097 "/>
<polygon fill="#94D9FF" stroke="#3B79C4" stroke-miterlimit="10" points="1571.383,711.896 1570.393,693.705 1519.965,640.203 
	1458.713,697.935 1474.016,714.332 "/>
<polygon fill="#94D9FF" stroke="#3B79C4" stroke-miterlimit="10" points="1477.36,504.056 1451.338,476.22 1458.877,468.976 
	1484.165,497.253 "/>
<polygon fill="#94D9FF" stroke="#3B79C4" stroke-miterlimit="10" points="1448.354,515.906 1451.338,476.22 1477.36,504.056 
	1465.512,515.906 "/>
<polygon fill="#94D9FF" stroke="#3B79C4" stroke-miterlimit="10" points="1369.907,476.22 1366.299,515.906 1448.334,516.171 
	1451.338,476.22 "/>
<polygon fill="#94D9FF" stroke="#3B79C4" stroke-miterlimit="10" points="1280.389,498.425 1275.59,632.126 1397.411,632.253 
	1394.645,629.292 1443.239,583.937 1448.334,516.171 1366.299,515.906 1368.014,497.035 "/>
<polygon fill="#94D9FF" stroke="#3B79C4" stroke-miterlimit="10" points="1541.76,440.076 1512.567,406.455 1538.645,383.81 
	1566.354,415.003 "/>
<polygon fill="#94D9FF" stroke="#3B79C4" stroke-miterlimit="10" points="1557.081,424.81 1574.928,406.429 1582.358,413.859 
	1578.897,417.32 1590.645,429.216 1573.176,445.482 "/>
<polygon fill="#94D9FF" stroke="#3B79C4" stroke-miterlimit="10" points="1603.163,437.783 1629.92,411.023 1650.079,435.064 
	1623.165,459.828 "/>
<polygon fill="#94D9FF" stroke="#3B79C4" stroke-miterlimit="10" points="1527.874,453.544 1557.081,424.81 1570.635,442.218 
	1542.766,469.876 "/>
<polygon fill="#94D9FF" stroke="#3B79C4" stroke-miterlimit="10" points="1491.34,437.773 1517.733,412.404 1541.76,440.076 
	1516.026,465.392 "/>
<polygon fill="#94D9FF" stroke="#3B79C4" stroke-miterlimit="10" points="1458.877,468.976 1484.165,497.253 1516.026,465.392 
	1491.34,437.773 "/>
<polygon fill="#94D9FF" stroke="#3B79C4" stroke-miterlimit="10" points="1586.852,577.156 1644.559,523.378 1667.915,549.435 
	1608.391,603.779 "/>
<polygon fill="#94D9FF" stroke="#3B79C4" stroke-miterlimit="10" points="1704.083,603.062 1723.204,584.875 1757.161,622.617 
	1737.668,640.066 "/>
<polygon fill="#94D9FF" stroke="#3B79C4" stroke-miterlimit="10" points="1737.668,640.066 1757.161,622.617 1774.635,642.039 
	1754.645,658.771 "/>
<polygon fill="#94D9FF" stroke="#3B79C4" stroke-miterlimit="10" points="1693.399,591.289 1712.125,572.56 1723.204,584.875 
	1704.083,603.062 "/>
<polygon fill="#94D9FF" stroke="#3B79C4" stroke-miterlimit="10" points="1653.088,709.855 1655.432,691.654 1726.299,626.457 
	1754.645,658.771 1774.635,642.039 1814.172,685.984 1743.237,755.828 1700.788,708.662 "/>
<polygon fill="#94D9FF" stroke="#3B79C4" stroke-miterlimit="10" points="1565.469,597.312 1586.852,577.156 1603.165,597.683 
	1581.883,615.289 "/>
<polygon fill="#94D9FF" stroke="#3B79C4" stroke-miterlimit="10" points="1604.272,639.81 1623.459,623.224 1632.756,634.923 
	1615.049,651.613 "/>
<polygon fill="#94D9FF" stroke="#3B79C4" stroke-miterlimit="10" points="1581.883,615.289 1588.204,622.21 1608.391,603.779 
	1603.165,597.683 "/>
<polygon fill="#94D9FF" stroke="#3B79C4" stroke-miterlimit="10" points="1592.208,673.142 1544.514,617.062 1565.469,597.312 
	1615.049,651.613 "/>
<polygon fill="#94D9FF" stroke="#3B79C4" stroke-miterlimit="10" points="1519.965,640.203 1544.514,617.062 1592.208,673.142 
	1570.393,693.705 "/>
<polygon fill="#94D9FF" stroke="#3B79C4" stroke-miterlimit="10" points="1653.088,709.855 1655.432,691.654 1725.764,626.949 
	1693.399,591.289 1641.26,643.427 1632.756,634.923 1570.393,693.705 1571.383,711.896 "/>
<polygon fill="#94D9FF" stroke="#3B79C4" stroke-miterlimit="10" points="1604.272,639.81 1623.459,623.224 1608.17,603.982 
	1588.204,622.21 "/>
<polygon fill="#94D9FF" stroke="#3B79C4" stroke-miterlimit="10" points="1542.766,469.876 1570.635,442.218 1573.176,445.482 
	1590.645,429.216 1601.122,439.824 1603.163,437.783 1623.165,459.828 1604.409,478.583 1625.883,502.541 1596.92,529.271 "/>
<polygon fill="#94D9FF" stroke="#3B79C4" stroke-miterlimit="10" points="1596.92,529.271 1625.883,502.541 1644.559,523.378 
	1615.749,549.921 "/>
<polygon fill="#94D9FF" stroke="#3B79C4" stroke-miterlimit="10" points="1448.354,515.906 1465.512,515.906 1527.874,453.544 
	1615.749,549.921 1458.713,697.935 1394.645,629.292 1443.239,583.937 "/>
<polygon fill="#94D9FF" stroke="#3B79C4" stroke-miterlimit="10" points="1667.915,549.435 1604.409,478.583 1650.079,435.064 
	1712.125,509.068 "/>
<polyline fill="none" stroke="#3B79C4" stroke-miterlimit="10" points="1641.26,598.111 1683.78,561.259 1695.118,574.343 "/>
<polyline fill="none" stroke="#3B79C4" stroke-miterlimit="10" points="1655.432,422.363 1716.661,493.228 1706.655,502.541 "/>
<polygon fill="#94D9FF" stroke="#3B79C4" stroke-miterlimit="10" points="511.603,214.259 572.599,214.259 572.599,308.976 
	527.244,308.976 "/>
<polygon fill="#94D9FF" stroke="#3B79C4" stroke-miterlimit="10" points="366.124,161.564 456.735,149.546 464.779,197.812 
	375.421,209.599 "/>
<path fill="#94D9FF" stroke="#3B79C4" stroke-miterlimit="10" d="M375.421,209.599l89.358-11.787l5.771,34.629l-56.69,45.355
	c0,0-21.685-15.154-34.018-45.355L375.421,209.599z"/>
<g>
	<path fill="#94D9FF" stroke="#3B79C4" stroke-miterlimit="10" d="M501.112,150.734l-43.074,6.627l6.741,40.451l5.771,34.629
		l-56.69,45.355c0,0,19.372,10.25,24.095,31.18h89.291L501.112,150.734z"/>
</g>
<polygon fill="#94D9FF" stroke="#3B79C4" stroke-miterlimit="10" points="890.079,291.968 890.079,260.789 929.764,260.789 
	929.764,215.433 983.622,215.433 983.622,291.968 "/>
<rect x="890.079" y="291.968" fill="#94D9FF" stroke="#3B79C4" stroke-miterlimit="10" width="34.016" height="14.174"/>
<rect x="890.079" y="306.142" fill="#94D9FF" stroke="#3B79C4" stroke-miterlimit="10" width="93.543" height="28.346"/>
<rect x="926.928" y="334.488" fill="#94D9FF" stroke="#3B79C4" stroke-miterlimit="10" width="56.693" height="31.184"/>
<polygon fill="#94D9FF" stroke="#3B79C4" stroke-miterlimit="10" points="799.37,308.976 799.37,419.527 890.079,419.527 
	890.079,365.669 926.928,365.669 926.928,334.488 890.079,334.488 890.079,308.976 "/>
<polygon fill="#94D9FF" stroke="#3B79C4" stroke-miterlimit="10" points="303.524,53.477 307.343,59.924 345.827,56.693 
	413.858,51.023 419.527,82.89 488.04,71.576 476.221,0 459.213,0 430.866,7.56 430.866,0 399.685,11.339 402.521,34.016 
	382.679,39.685 346.961,39.686 348.661,47.65 "/>
<polygon fill="#94D9FF" stroke="#3B79C4" stroke-miterlimit="10" points="396.851,0 374.173,5.67 382.677,39.686 328.819,39.686 
	62.362,79.37 127.941,383.845 87.291,389.267 0,0 "/>
<polygon fill="#94D9FF" stroke="#3B79C4" stroke-miterlimit="10" points="419.334,82.89 488.04,71.576 501.112,150.734 
	458.038,157.361 448.065,97.527 422.362,102.048 "/>
<polygon fill="#94D9FF" stroke="#3B79C4" stroke-miterlimit="10" points="345.827,56.693 354.521,101.614 420.702,92.088 
	413.858,51.023 "/>
<polygon fill="#94D9FF" stroke="#3B79C4" stroke-miterlimit="10" points="354.521,101.614 420.702,92.088 422.362,102.048 
	448.065,97.527 456.735,149.546 366.124,161.564 "/>
<polygon fill="#94D9FF" stroke="#3B79C4" stroke-miterlimit="10" points="382.677,39.686 374.173,5.67 396.851,0 403.093,34.016 "/>
<polygon fill="#94D9FF" stroke="#3B79C4" stroke-miterlimit="10" points="1039.842,65.197 1039.842,90.709 1065.827,90.709 
	1065.827,62.362 1060.842,62.24 1060.542,65.306 "/>
<rect x="975.118" fill="#94D9FF" stroke="#3B79C4" stroke-miterlimit="10" width="85.039" height="65.195"/>
<polygon opacity="0.5" fill="#94D9FF" stroke="#3B79C4" stroke-miterlimit="10" points="1111.18,127.568 1207.467,127.551 
	1203.553,251.708 1111.18,252.072 "/>
<polygon fill="#94D9FF" stroke="#3B79C4" stroke-miterlimit="10" points="476.221,0 511.603,214.259 572.599,214.259 
	572.599,308.976 890.079,308.976 890.079,260.789 929.764,260.789 929.764,215.433 983.622,215.433 983.622,291.968 
	1014.803,291.968 1014.803,297.638 1111.18,297.638 1111.18,99.213 1017.637,99.213 1017.637,65.197 975.118,65.197 975.118,0 "/>
<polygon fill="#94D9FF" stroke="#3B79C4" stroke-miterlimit="10" points="1207.559,127.56 1201.889,303.308 1445.668,303.308 
	1468.346,286.3 1473.278,158.099 1417.323,127.56 "/>
<rect x="1284.094" y="311.812" opacity="0.5" fill="#94D9FF" stroke="#3B79C4" stroke-miterlimit="10" width="95.67" height="85.039"/>
<line fill="none" stroke="#3B79C4" stroke-miterlimit="10" x1="1372.014" y1="452.187" x2="1374.803" y2="396.851"/>
<polyline fill="none" stroke="#3B79C4" stroke-miterlimit="10" points="1071.497,600.945 1020.473,600.945 1020.473,583.937 
	1082.834,583.937 "/>
<line fill="none" stroke="#3B79C4" stroke-miterlimit="10" x1="918.424" y1="581.103" x2="891.78" y2="581.103"/>
<line fill="none" stroke="#3B79C4" stroke-miterlimit="10" x1="997.795" y1="445.041" x2="997.057" y2="476.753"/>
<path fill="#94D9FF" stroke="#3B79C4" stroke-miterlimit="10" d="M838.237,738.892l63.18,52.684l-41.811,41.812L812.6,786.14
	l23.619-23.619C836.221,762.519,841.463,753.208,838.237,738.892z"/>
<polygon fill="#94D9FF" stroke="#3B79C4" stroke-miterlimit="10" points="859.842,894.332 859.842,832.98 901.417,791.576 
	1007.249,790.302 1005.29,892.248 "/>
<polygon fill="#94D9FF" stroke="#3B79C4" stroke-miterlimit="10" points="779.528,793.701 782.362,810.708 788.032,810.708 
	810.709,788.031 801.637,780.095 788.032,793.701 "/>
<polygon fill="#94D9FF" stroke="#3B79C4" stroke-miterlimit="10" points="768.852,778.494 771.024,793.701 788.032,793.701 
	801.637,780.095 795.243,736.064 778.827,738.892 785.182,775.855 "/>
<polygon fill="#94D9FF" stroke="#3B79C4" stroke-miterlimit="10" points="761.545,726.509 776.692,726.509 785.182,775.769 
	768.852,778.494 "/>
<path fill="#94D9FF" stroke="#3B79C4" stroke-miterlimit="10" d="M834.399,729.316c0,0,10.365,16.814,1.82,33.203l-25.512,25.512
	l-9.072-7.936l-6.395-44.031L834.399,729.316z"/>
<polygon fill="#94D9FF" stroke="#3B79C4" stroke-miterlimit="10" points="776.346,718.23 776.692,726.509 778.827,738.892 
	834.399,729.316 791.327,694.857 790.866,718.23 "/>
<polygon fill="#94D9FF" stroke="#3B79C4" stroke-miterlimit="10" points="775.766,704.402 776.346,718.23 790.866,717.621 
	791.139,704.125 "/>
<polygon fill="#94D9FF" stroke="#3B79C4" stroke-miterlimit="10" points="775.131,689.261 791.327,694.857 791.139,704.125 
	775.766,704.402 "/>
<path fill="#94D9FF" stroke="#3B79C4" stroke-miterlimit="10" d="M589.606,666.142v36.85h79.369v11.34h90.707l1.861,12.18h15.145
	l-1.561-37.248c0,0-62.209-21.219-128.832-23.119h-56.689V666.142z"/>
<polyline fill="#94D9FF" stroke="#3B79C4" stroke-miterlimit="10" points="997.795,629.292 873.071,629.292 873.071,702.992 
	890.079,714.332 1026.141,714.332 1028.977,663.308 997.795,663.308 "/>
<line fill="none" stroke="#3B79C4" stroke-miterlimit="10" x1="384.824" y1="895.748" x2="499.606" y2="884.41"/>
<path fill="none" stroke="#3B79C4" stroke-miterlimit="10" d="M1451.379,801.416"/>
<polygon opacity="0.5" fill="#94D9FF" stroke="#3B79C4" stroke-miterlimit="10" points="624.847,779.447 643.465,878.74 
	731.338,861.732 714.477,764.775 "/>
<g id="SYMBOLS">
	<g>
		<path d="M1160.305,425.505c0.912-0.002,1.648-0.74,1.646-1.646c0.004-0.916-0.734-1.652-1.646-1.658
			c-0.906,0.006-1.645,0.742-1.645,1.658C1158.659,424.765,1159.395,425.503,1160.305,425.505L1160.305,425.505z"/>
		<path d="M1160.305,423.861"/>
		<path d="M1161.938,428.472v-1.039c0-2.215-3.266-2.189-3.27,0v4.236h0.012l-3.08,3.082c-0.295,0.291-0.33,0.305-0.898,0.305
			c-0.002,0-1.893,0-1.893,0c-1.893,0-3.029,1.705-3.035,3.152c0.006,1.441,1.145,3.27,3.211,3.268c0,0,2.562,0.002,3.352,0
			c0.797,0.002,1.758-0.301,2.557-1.051l9.828-9.793c0.207-0.191,0.324-0.25,0.689-0.246c0,0,1.352-0.004,2.43,0
			c1.164-0.004,2.816-1.328,2.812-3.232c0.004-1.895-1.66-3.152-2.918-3.15h-3.83c-0.791-0.008-1.811,0.316-2.416,0.922
			L1161.938,428.472L1161.938,428.472L1161.938,428.472z"/>
		<path fill="#FFFFFF" d="M1168.137,425.623h3.445c0.844,0.004,1.408,0.941,1.412,1.506c-0.004,0.555-0.404,1.6-1.424,1.6h-2.078
			c-0.879,0-1.27,0.123-1.775,0.631l-9.91,9.898c-0.395,0.406-0.902,0.564-1.553,0.561h-3.268c-0.844,0.004-1.582-0.705-1.576-1.635
			c-0.006-0.934,0.699-1.457,1.424-1.459h2.242c0.656,0.002,1.086-0.184,1.459-0.561l10.072-10.074
			C1167.024,425.679,1167.434,425.626,1168.137,425.623L1168.137,425.623z"/>
	</g>
	<g>
		<path d="M1331.448,347.996c0.91-0.004,1.646-0.74,1.645-1.646c0.004-0.916-0.732-1.654-1.645-1.658
			c-0.91,0.004-1.648,0.742-1.646,1.658C1329.799,347.255,1330.538,347.992,1331.448,347.996L1331.448,347.996z"/>
		<path d="M1331.448,346.349"/>
		<path d="M1333.081,350.96v-1.039c0-2.213-3.264-2.189-3.27,0v4.236h0.014l-3.082,3.082c-0.295,0.291-0.33,0.305-0.898,0.305
			c-0.002,0-1.891,0-1.891,0c-1.896,0-3.031,1.705-3.035,3.15c0.004,1.443,1.141,3.271,3.209,3.271c0,0,2.562,0.002,3.352,0
			c0.797,0.002,1.758-0.303,2.557-1.053l9.828-9.795c0.207-0.189,0.322-0.248,0.689-0.242c0,0,1.352-0.006,2.428,0
			c1.164-0.006,2.818-1.328,2.812-3.234c0.006-1.893-1.66-3.152-2.918-3.152h-3.828c-0.791-0.004-1.812,0.318-2.416,0.924
			L1333.081,350.96L1333.081,350.96L1333.081,350.96z"/>
		<path fill="#FFFFFF" d="M1339.28,348.111h3.441c0.846,0.004,1.41,0.943,1.412,1.506c-0.002,0.557-0.402,1.602-1.424,1.602h-2.078
			c-0.879,0-1.268,0.123-1.771,0.631l-9.91,9.896c-0.396,0.406-0.904,0.566-1.555,0.562h-3.27c-0.842,0.004-1.58-0.705-1.576-1.635
			c-0.004-0.936,0.701-1.457,1.426-1.459h2.24c0.658,0.002,1.088-0.186,1.459-0.562l10.074-10.072
			C1338.167,348.167,1338.575,348.115,1339.28,348.111L1339.28,348.111z"/>
	</g>
	<g>
		<path d="M1182.526,160.666c0.912-0.004,1.648-0.742,1.646-1.646c0.004-0.916-0.734-1.652-1.646-1.658
			c-0.906,0.006-1.645,0.742-1.645,1.658C1180.879,159.923,1181.616,160.662,1182.526,160.666L1182.526,160.666z"/>
		<path d="M1182.526,159.019"/>
		<path d="M1184.159,163.63v-1.039c0-2.213-3.266-2.189-3.27,0v4.238h0.012l-3.08,3.082c-0.295,0.291-0.33,0.303-0.898,0.303
			c-0.002,0-1.893,0-1.893,0c-1.893,0-3.029,1.705-3.035,3.152c0.006,1.441,1.145,3.271,3.211,3.27c0,0,2.562,0.002,3.352,0
			c0.797,0.002,1.758-0.301,2.557-1.051l9.828-9.795c0.207-0.191,0.324-0.248,0.689-0.244c0,0,1.352-0.004,2.43,0
			c1.164-0.004,2.816-1.328,2.812-3.234c0.004-1.893-1.66-3.15-2.918-3.15h-3.83c-0.791-0.006-1.811,0.316-2.416,0.922
			L1184.159,163.63L1184.159,163.63L1184.159,163.63z"/>
		<path fill="#FFFFFF" d="M1190.358,160.783h3.445c0.844,0.002,1.408,0.939,1.412,1.506c-0.004,0.555-0.404,1.598-1.424,1.598
			h-2.078c-0.879,0-1.27,0.123-1.775,0.631l-9.91,9.898c-0.395,0.408-0.902,0.564-1.553,0.561h-3.268
			c-0.844,0.006-1.582-0.705-1.576-1.633c-0.006-0.936,0.699-1.459,1.424-1.459h2.242c0.656,0,1.086-0.186,1.459-0.561
			l10.072-10.074C1189.245,160.837,1189.655,160.785,1190.358,160.783L1190.358,160.783z"/>
	</g>
	<g>
		<path fill="#FFFFFF" stroke="#000000" stroke-width="0.72" stroke-linecap="round" stroke-linejoin="round" d="M822.489,452.818
			h11.076c1.02,0,1.846,0.826,1.846,1.846v14.77c0,1.018-0.826,1.846-1.846,1.846h-11.076c-1.021,0-1.846-0.828-1.846-1.846l0,0
			v-14.77C820.643,453.644,821.467,452.818,822.489,452.818L822.489,452.818z"/>
		<path d="M828.749,456.324c0.391-0.48,0.391-1.262,0-1.74c-0.389-0.482-1.021-0.482-1.412,0c-0.389,0.479-0.389,1.26,0,1.74
			C827.727,456.806,828.36,456.806,828.749,456.324 M829.297,457.136h-2.393l0,0c-0.643-0.039-1.188,0.578-1.219,1.377
			c0,0.02-0.002,0.039-0.002,0.059v4.254l0,0c0.023,0.26,0.213,0.447,0.422,0.418c0.176-0.023,0.312-0.197,0.334-0.418l0.012-3.656
			l0,0c0-0.121,0.078-0.221,0.174-0.221s0.174,0.1,0.174,0.221l0,0v10.014l0,0c0.016,0.365,0.266,0.643,0.561,0.623
			c0.268-0.021,0.48-0.287,0.498-0.623v-5.834l0,0c0.088-0.125,0.238-0.137,0.338-0.027c0.008,0.01,0.016,0.02,0.021,0.027v5.834
			l0,0c0.021,0.369,0.273,0.645,0.57,0.623c0.266-0.023,0.479-0.289,0.498-0.623v-10.029l0,0c-0.018-0.125,0.053-0.238,0.15-0.258
			c0.102-0.018,0.191,0.066,0.207,0.191c0.002,0.021,0.002,0.045,0,0.066v3.672l0,0c0.023,0.27,0.217,0.461,0.434,0.434
			c0.182-0.025,0.326-0.205,0.346-0.434v-4.254l0,0c0.021-0.764-0.457-1.408-1.07-1.434
			C829.334,457.136,829.317,457.136,829.297,457.136z"/>
	</g>
	<g>
		<path fill="#FFFFFF" stroke="#000000" stroke-width="0.72" stroke-linecap="round" stroke-linejoin="round" d="M898.713,484
			h11.076c1.02,0,1.846,0.824,1.846,1.846v14.768c0,1.02-0.826,1.848-1.846,1.848h-11.076c-1.02,0-1.846-0.828-1.846-1.848l0,0
			v-14.768C896.868,484.824,897.694,484,898.713,484L898.713,484z"/>
		<path d="M904.975,487.505c0.391-0.482,0.391-1.264,0-1.742c-0.391-0.482-1.021-0.482-1.412,0c-0.391,0.479-0.391,1.26,0,1.742
			S904.584,487.988,904.975,487.505 M905.522,488.316h-2.395l0,0c-0.639-0.039-1.186,0.578-1.217,1.379
			c0,0.021-0.002,0.039-0.002,0.061v4.252l0,0c0.021,0.26,0.213,0.447,0.42,0.418c0.176-0.025,0.316-0.197,0.336-0.418l0.012-3.658
			l0,0c0-0.119,0.078-0.217,0.176-0.217c0.096,0,0.174,0.096,0.174,0.217l0,0v10.014l0,0c0.016,0.365,0.268,0.646,0.559,0.625
			c0.268-0.02,0.482-0.289,0.498-0.625v-5.834l0,0c0.088-0.123,0.238-0.137,0.338-0.025c0.008,0.01,0.016,0.018,0.021,0.025v5.834
			l0,0c0.021,0.369,0.273,0.648,0.568,0.625c0.27-0.021,0.48-0.289,0.498-0.625v-10.025l0,0c-0.014-0.125,0.057-0.24,0.152-0.26
			c0.1-0.02,0.191,0.066,0.209,0.191c0.002,0.021,0.002,0.043,0,0.066v3.672l0,0c0.02,0.268,0.215,0.461,0.43,0.432
			c0.184-0.023,0.326-0.205,0.348-0.432v-4.252l0,0c0.021-0.768-0.455-1.408-1.068-1.438
			C905.561,488.316,905.542,488.316,905.522,488.316z"/>
	</g>
	<g>
		<path fill="#FFFFFF" stroke="#000000" stroke-width="0.72" stroke-linecap="round" stroke-linejoin="round" d="M964.206,523.669
			h11.074c1.02,0,1.846,0.828,1.846,1.848v9.598c0,1.021-0.826,1.848-1.846,1.848h-11.074c-1.021,0-1.846-0.826-1.846-1.848l0,0
			v-9.598C962.36,524.498,963.186,523.669,964.206,523.669L964.206,523.669z"/>
		<path d="M967.17,529.949l-0.047-0.752l0,0c-1.279,0.627-2.088,1.822-2.125,3.135l0,0c0.146,1.805,1.787,3.215,3.797,3.26l0,0
			c1.445-0.041,2.756-0.773,3.439-1.922l-0.479-0.92l0,0c-0.352,1.191-1.5,2.057-2.869,2.15l0,0
			c-1.639,0.061-3.031-1.072-3.133-2.549l0,0C965.678,531.373,966.227,530.439,967.17,529.949z M968.192,526.896l0.186,2.133h2.787
			v0.711h-2.695l0.096,0.709h3.619l1.58,3.264l1.254-0.461l0.23,0.584l-2.043,0.754l-1.578-3.344l-3.854-0.043l-0.465-4.807l0,0
			c-0.238-0.441-0.031-0.975,0.457-1.188c0.49-0.217,1.084-0.029,1.32,0.412c0.236,0.439,0.031,0.973-0.459,1.188
			C968.493,526.867,968.342,526.898,968.192,526.896z"/>
	</g>
	<g>
		<path fill="#FFFFFF" stroke="#000000" stroke-width="0.72" stroke-linecap="round" stroke-linejoin="round" d="M868.641,452.582
			h11.074c1.021,0,1.846,0.826,1.846,1.846v15.24c0,1.02-0.826,1.846-1.846,1.846h-11.074c-1.02,0-1.846-0.826-1.846-1.846l0,0
			v-15.24C866.795,453.41,867.624,452.582,868.641,452.582L868.641,452.582z"/>
		<path d="M875.25,456.634h-1.975l0,0c-0.305,0.053-0.578,0.254-0.768,0.564l0,0c-0.156,0.311-0.27,0.652-0.336,1.014l-0.918,3.6
			l0,0c-0.043,0.266,0.09,0.523,0.297,0.578c0.156,0.039,0.314-0.047,0.4-0.219l0.959-3.707l0,0
			c0.061-0.113,0.186-0.141,0.271-0.059c0.043,0.039,0.072,0.098,0.08,0.162l-1.451,6.041h1.312v4.824l0,0
			c0.064,0.32,0.322,0.51,0.572,0.428c0.162-0.057,0.291-0.219,0.334-0.428v-4.824h0.311v4.824l0,0
			c0.07,0.32,0.33,0.506,0.582,0.416c0.158-0.057,0.279-0.213,0.324-0.416v-4.824h1.381l-1.346-5.936l0,0
			c0.021-0.154,0.135-0.256,0.254-0.23c0.039,0.01,0.076,0.031,0.105,0.064l0.822,3.572l0,0c0.123,0.26,0.385,0.342,0.586,0.186
			c0.146-0.111,0.229-0.326,0.205-0.543l-0.939-3.721l0,0c-0.045-0.252-0.133-0.492-0.256-0.699l0,0
			C875.862,456.968,875.575,456.73,875.25,456.634z M875.008,455.792c0.385-0.482,0.385-1.262,0-1.74
			c-0.383-0.48-1.002-0.48-1.387,0c-0.383,0.479-0.383,1.258,0,1.74C874.004,456.271,874.625,456.271,875.008,455.792"/>
	</g>
	<g>
		<path fill="#FFFFFF" stroke="#000000" stroke-width="0.72" stroke-linecap="round" stroke-linejoin="round" d="M914.713,532.914
			h11.074c1.02,0,1.846,0.824,1.846,1.846V550c0,1.02-0.826,1.846-1.846,1.846h-11.074c-1.02,0-1.846-0.826-1.846-1.846l0,0v-15.24
			C912.868,533.74,913.694,532.914,914.713,532.914L914.713,532.914z"/>
		<path d="M921.323,536.964h-1.977l0,0c-0.303,0.053-0.578,0.254-0.766,0.564l0,0c-0.156,0.312-0.271,0.652-0.336,1.014
			l-0.918,3.602l0,0c-0.043,0.266,0.09,0.523,0.297,0.576c0.156,0.041,0.312-0.047,0.4-0.219l0.959-3.705l0,0
			c0.061-0.113,0.186-0.141,0.271-0.059c0.043,0.037,0.072,0.098,0.08,0.16l-1.451,6.041h1.312v4.824l0,0
			c0.062,0.32,0.32,0.51,0.57,0.428c0.162-0.057,0.291-0.219,0.334-0.428v-4.824h0.312v4.824l0,0c0.068,0.32,0.33,0.506,0.58,0.416
			c0.156-0.057,0.279-0.215,0.324-0.416v-4.824h1.383l-1.35-5.936l0,0c0.021-0.154,0.135-0.256,0.256-0.23
			c0.039,0.01,0.074,0.031,0.105,0.062l0.822,3.57l0,0c0.121,0.262,0.385,0.346,0.588,0.189c0.145-0.113,0.227-0.326,0.203-0.543
			l-0.941-3.723l0,0c-0.045-0.254-0.133-0.49-0.256-0.699l0,0C921.932,537.298,921.645,537.06,921.323,536.964z M921.081,536.123
			c0.383-0.48,0.383-1.262,0-1.74s-1.004-0.479-1.387,0c-0.385,0.479-0.385,1.26,0,1.74
			C920.077,536.603,920.698,536.603,921.081,536.123"/>
	</g>
	<g>
		<path fill="#FFFFFF" stroke="#000000" stroke-width="0.72" stroke-linecap="round" stroke-linejoin="round" d="M454.687,28.441
			h11.074c1.021,0,1.847,0.826,1.847,1.847v14.769c0,1.019-0.825,1.846-1.847,1.846h-11.074c-1.021,0-1.848-0.827-1.848-1.846l0,0
			V30.288C452.84,29.268,453.665,28.441,454.687,28.441L454.687,28.441z"/>
		<path d="M460.946,31.948c0.39-0.48,0.39-1.263,0-1.741c-0.391-0.482-1.021-0.482-1.412,0c-0.391,0.479-0.391,1.261,0,1.741
			C459.924,32.431,460.557,32.431,460.946,31.948 M461.494,32.76H459.1l0,0c-0.64-0.039-1.186,0.578-1.217,1.378
			c0,0.02-0.002,0.039-0.002,0.059v4.253l0,0c0.023,0.261,0.211,0.447,0.42,0.418c0.177-0.023,0.315-0.196,0.334-0.418l0.014-3.656
			l0,0c0-0.12,0.077-0.22,0.174-0.22s0.174,0.099,0.174,0.22l0,0v10.014l0,0c0.017,0.365,0.267,0.644,0.559,0.624
			c0.271-0.021,0.483-0.288,0.499-0.624v-5.834l0,0c0.088-0.124,0.239-0.137,0.338-0.027c0.01,0.009,0.018,0.02,0.022,0.027v5.834
			l0,0c0.021,0.369,0.274,0.646,0.57,0.624c0.267-0.023,0.479-0.289,0.498-0.624V34.778l0,0c-0.017-0.125,0.054-0.238,0.15-0.258
			c0.102-0.019,0.192,0.066,0.208,0.191c0.002,0.021,0.002,0.044,0,0.065v3.672l0,0c0.023,0.27,0.216,0.461,0.433,0.434
			c0.182-0.025,0.324-0.205,0.346-0.434v-4.253l0,0c0.021-0.765-0.456-1.406-1.069-1.435C461.532,32.76,461.513,32.76,461.494,32.76
			z"/>
	</g>
	<g>
		<path fill="#FFFFFF" stroke="#000000" stroke-width="0.72" stroke-linecap="round" stroke-linejoin="round" d="M383.1,10.362
			h11.074c1.021,0,1.847,0.827,1.847,1.85v9.598c0,1.02-0.826,1.846-1.847,1.846H383.1c-1.021,0-1.847-0.826-1.847-1.846l0,0v-9.598
			C381.253,11.189,382.08,10.362,383.1,10.362L383.1,10.362z"/>
		<path d="M386.065,16.641l-0.049-0.752l0,0c-1.277,0.628-2.089,1.822-2.125,3.134l0,0c0.146,1.805,1.787,3.215,3.799,3.26l0,0
			c1.442-0.041,2.756-0.772,3.437-1.922l-0.476-0.92l0,0c-0.354,1.193-1.501,2.059-2.869,2.151l0,0
			c-1.642,0.06-3.032-1.073-3.134-2.548l0,0C384.573,18.065,385.122,17.132,386.065,16.641z M387.085,13.589l0.186,2.133h2.787v0.71
			h-2.692l0.094,0.71h3.621l1.58,3.261l1.253-0.46l0.229,0.584L392.1,21.28l-1.577-3.344l-3.854-0.042l-0.465-4.806l0,0
			c-0.238-0.443-0.032-0.977,0.458-1.188c0.491-0.215,1.083-0.03,1.319,0.411c0.236,0.442,0.031,0.974-0.459,1.188
			C387.387,13.56,387.237,13.591,387.085,13.589z"/>
	</g>
	<g>
		<path fill="#FFFFFF" stroke="#000000" stroke-width="0.72" stroke-linecap="round" stroke-linejoin="round" d="M466.676,105.667
			h11.075c1.021,0,1.846,0.825,1.846,1.846v15.24c0,1.019-0.825,1.846-1.846,1.846h-11.075c-1.019,0-1.846-0.827-1.846-1.846l0,0
			v-15.24C464.83,106.494,465.657,105.667,466.676,105.667L466.676,105.667z"/>
		<path d="M473.285,109.719h-1.974l0,0c-0.306,0.053-0.579,0.254-0.768,0.564l0,0c-0.157,0.312-0.27,0.652-0.337,1.014l-0.917,3.601
			l0,0c-0.043,0.267,0.089,0.523,0.296,0.577c0.156,0.04,0.315-0.047,0.401-0.219l0.958-3.706l0,0
			c0.062-0.113,0.186-0.141,0.272-0.059c0.042,0.038,0.071,0.098,0.079,0.161l-1.451,6.042h1.312v4.823l0,0
			c0.064,0.321,0.321,0.511,0.571,0.428c0.162-0.056,0.291-0.219,0.334-0.428v-4.823h0.312v4.823l0,0
			c0.07,0.321,0.33,0.507,0.581,0.416c0.158-0.056,0.28-0.213,0.325-0.416v-4.823h1.381l-1.346-5.937l0,0
			c0.021-0.154,0.134-0.256,0.254-0.229c0.039,0.011,0.076,0.031,0.104,0.063l0.824,3.571l0,0c0.122,0.261,0.384,0.344,0.586,0.188
			c0.146-0.112,0.229-0.326,0.204-0.543l-0.94-3.721l0,0c-0.046-0.253-0.133-0.492-0.256-0.699l0,0
			C473.896,110.053,473.609,109.814,473.285,109.719z M473.043,108.877c0.384-0.481,0.384-1.262,0-1.74
			c-0.383-0.48-1.003-0.48-1.387,0c-0.384,0.479-0.384,1.259,0,1.74C472.04,109.356,472.66,109.356,473.043,108.877"/>
	</g>
	<g>
		<path d="M241.838,744.617c0.912-0.002,1.648-0.74,1.646-1.646c0.004-0.916-0.734-1.652-1.646-1.658
			c-0.906,0.006-1.645,0.742-1.645,1.658C240.192,743.876,240.928,744.615,241.838,744.617L241.838,744.617z"/>
		<path d="M241.838,742.972"/>
		<path d="M243.471,747.583v-1.039c0-2.215-3.266-2.189-3.27,0v4.236h0.012l-3.08,3.082c-0.295,0.291-0.33,0.305-0.898,0.305
			c-0.002,0-1.893,0-1.893,0c-1.893,0-3.029,1.705-3.035,3.152c0.006,1.441,1.145,3.27,3.211,3.268c0,0,2.562,0.002,3.352,0
			c0.797,0.002,1.758-0.301,2.557-1.051l9.828-9.793c0.207-0.191,0.324-0.25,0.689-0.246c0,0,1.352-0.004,2.43,0
			c1.164-0.004,2.816-1.328,2.812-3.232c0.004-1.895-1.66-3.152-2.918-3.15h-3.83c-0.791-0.008-1.811,0.316-2.416,0.922
			L243.471,747.583L243.471,747.583L243.471,747.583z"/>
		<path fill="#FFFFFF" d="M249.67,744.734h3.445c0.844,0.004,1.408,0.941,1.412,1.506c-0.004,0.555-0.404,1.6-1.424,1.6h-2.078
			c-0.879,0-1.27,0.123-1.775,0.631l-9.91,9.898c-0.395,0.406-0.902,0.564-1.553,0.561h-3.268c-0.844,0.004-1.582-0.705-1.576-1.635
			c-0.006-0.934,0.699-1.457,1.424-1.459h2.242c0.656,0.002,1.086-0.184,1.459-0.561l10.072-10.074
			C248.557,744.791,248.967,744.738,249.67,744.734L249.67,744.734z"/>
	</g>
	<g>
		<path d="M676.197,809.784c0.912-0.002,1.648-0.74,1.646-1.646c0.004-0.916-0.734-1.652-1.646-1.658
			c-0.906,0.006-1.645,0.742-1.645,1.658C674.55,809.043,675.287,809.782,676.197,809.784L676.197,809.784z"/>
		<path d="M676.197,808.139"/>
		<path d="M677.83,812.75v-1.039c0-2.215-3.266-2.189-3.27,0v4.236h0.012l-3.08,3.082c-0.295,0.291-0.33,0.305-0.898,0.305
			c-0.002,0-1.893,0-1.893,0c-1.893,0-3.029,1.705-3.035,3.152c0.006,1.441,1.145,3.27,3.211,3.268c0,0,2.562,0.002,3.352,0
			c0.797,0.002,1.758-0.301,2.557-1.051l9.828-9.793c0.207-0.191,0.324-0.25,0.689-0.246c0,0,1.352-0.004,2.43,0
			c1.164-0.004,2.816-1.328,2.812-3.232c0.004-1.895-1.66-3.152-2.918-3.15h-3.83c-0.791-0.008-1.811,0.316-2.416,0.922
			L677.83,812.75L677.83,812.75L677.83,812.75z"/>
		<path fill="#FFFFFF" d="M684.029,809.901h3.445c0.844,0.004,1.408,0.941,1.412,1.506c-0.004,0.555-0.404,1.6-1.424,1.6h-2.078
			c-0.879,0-1.27,0.123-1.775,0.631l-9.91,9.898c-0.395,0.406-0.902,0.564-1.553,0.561h-3.268c-0.844,0.004-1.582-0.705-1.576-1.635
			c-0.006-0.934,0.699-1.457,1.424-1.459h2.242c0.656,0.002,1.086-0.184,1.459-0.561l10.072-10.074
			C682.916,809.958,683.326,809.905,684.029,809.901L684.029,809.901z"/>
	</g>
	<g>
		<polygon points="292.758,887.792 297.309,887.792 297.309,883.161 301.83,883.161 301.83,878.497 306.423,878.497 306.423,873.92 
			310.984,873.92 310.984,869.374 317.757,869.374 317.757,871.694 313.255,871.694 313.255,876.257 308.688,876.257 
			308.688,880.885 304.13,880.885 304.13,885.49 299.554,885.49 299.554,890.132 292.758,890.132 		"/>
	</g>
	<g>
		<path d="M129.375,207.507c0.912-0.002,1.648-0.74,1.646-1.646c0.004-0.916-0.734-1.652-1.646-1.658
			c-0.906,0.006-1.645,0.742-1.645,1.658C127.728,206.767,128.464,207.505,129.375,207.507L129.375,207.507z"/>
		<path d="M129.375,205.862"/>
		<path d="M131.007,210.474v-1.039c0-2.215-3.266-2.189-3.27,0v4.236h0.012l-3.08,3.082c-0.295,0.291-0.33,0.305-0.898,0.305
			c-0.002,0-1.893,0-1.893,0c-1.893,0-3.029,1.705-3.035,3.152c0.006,1.441,1.145,3.27,3.211,3.268c0,0,2.562,0.002,3.352,0
			c0.797,0.002,1.758-0.301,2.557-1.051l9.828-9.793c0.207-0.191,0.324-0.25,0.689-0.246c0,0,1.352-0.004,2.43,0
			c1.164-0.004,2.816-1.328,2.812-3.232c0.004-1.895-1.66-3.152-2.918-3.15h-3.83c-0.791-0.008-1.811,0.316-2.416,0.922
			L131.007,210.474L131.007,210.474L131.007,210.474z"/>
		<path fill="#FFFFFF" d="M137.207,207.624h3.445c0.844,0.004,1.408,0.941,1.412,1.506c-0.004,0.555-0.404,1.6-1.424,1.6h-2.078
			c-0.879,0-1.27,0.123-1.775,0.631l-9.91,9.898c-0.395,0.406-0.902,0.564-1.553,0.561h-3.268c-0.844,0.004-1.582-0.705-1.576-1.635
			c-0.006-0.934,0.699-1.457,1.424-1.459h2.242c0.656,0.002,1.086-0.184,1.459-0.561l10.072-10.074
			C136.093,207.681,136.503,207.628,137.207,207.624L137.207,207.624z"/>
	</g>
	<g>
		<path d="M337.591,10.675c0.912-0.002,1.648-0.74,1.646-1.646c0.004-0.916-0.734-1.652-1.646-1.658
			c-0.906,0.006-1.645,0.742-1.645,1.658C335.944,9.935,336.681,10.673,337.591,10.675L337.591,10.675z"/>
		<path d="M337.591,9.031"/>
		<path d="M339.224,13.642v-1.039c0-2.215-3.266-2.189-3.27,0v4.236h0.012l-3.08,3.082c-0.295,0.291-0.33,0.305-0.898,0.305
			c-0.002,0-1.893,0-1.893,0c-1.893,0-3.029,1.705-3.035,3.152c0.006,1.441,1.145,3.27,3.211,3.268c0,0,2.562,0.002,3.352,0
			c0.797,0.002,1.758-0.301,2.557-1.051l9.828-9.793c0.207-0.191,0.324-0.25,0.689-0.246c0,0,1.352-0.004,2.43,0
			c1.164-0.004,2.816-1.328,2.812-3.232c0.004-1.895-1.66-3.152-2.918-3.15h-3.83c-0.791-0.008-1.811,0.316-2.416,0.922
			L339.224,13.642L339.224,13.642L339.224,13.642z"/>
		<path fill="#FFFFFF" d="M345.423,10.792h3.445c0.844,0.004,1.408,0.941,1.412,1.506c-0.004,0.555-0.404,1.6-1.424,1.6h-2.078
			c-0.879,0-1.27,0.123-1.775,0.631l-9.91,9.898c-0.395,0.406-0.902,0.564-1.553,0.561h-3.268c-0.844,0.004-1.582-0.705-1.576-1.635
			c-0.006-0.934,0.699-1.457,1.424-1.459h2.242c0.656,0.002,1.086-0.184,1.459-0.561l10.072-10.074
			C344.31,10.849,344.72,10.796,345.423,10.792L345.423,10.792z"/>
	</g>
	<g>
		<path d="M283.155,822.647v-16.99l0,0c0.001-1.689,1.303-3.097,3.103-3.103h17.009c1.732,0.006,3.091,1.394,3.084,3.103v16.99l0,0
			c0.011,1.803-1.371,3.072-3.065,3.065h-17.028l0,0C284.555,825.719,283.152,824.372,283.155,822.647L283.155,822.647z"/>
		<polygon fill="#FFFFFF" points="286.351,805.806 303.155,805.806 303.155,822.498 286.351,822.498 286.351,805.806 		"/>
		<path d="M298.949,789.414c-0.014-2.215,3.198-2.239,3.215,0l-0.056,6.748l1.738-2.112c1.191-1.317,3.29,0.509,2,1.981l-4.187,4.99
			c-0.671,0.668-1.532,0.664-2.187,0l-4.168-5.009c-1.301-1.474,0.816-3.318,1.981-1.981l1.72,2.131L298.949,789.414
			L298.949,789.414z"/>
		<path d="M287.286,799.862c-0.014,2.22,3.199,2.245,3.215,0l-0.038-6.747l1.72,2.131c1.192,1.303,3.29-0.522,2-2l-4.187-4.991
			c-0.67-0.662-1.531-0.658-2.187,0l-4.168,5.01c-1.301,1.479,0.817,3.323,1.981,2l1.72-2.149L287.286,799.862L287.286,799.862z"/>
		<path d="M302.351,815.376c0.004,0.331-0.268,0.566-0.561,0.561c0,0-3.762,0.006-3.776,0c-0.286,0.006-0.563-0.233-0.561-0.561
			v-4.094c-0.002-0.469,0.374-0.789,0.785-0.785c-0.005-0.004,3.327,0,3.327,0c0.449-0.004,0.789,0.352,0.785,0.785V815.376
			L302.351,815.376z"/>
		<path d="M301.436,815.788h-1.439v5.532c0.009,0.98,1.44,0.98,1.439,0V815.788L301.436,815.788z"/>
		<path d="M299.791,815.788h-1.439v5.532c0.006,0.973,1.437,0.973,1.439,0V815.788L299.791,815.788z"/>
		<path d="M299.921,810.162c0.589,0,1.07-0.481,1.065-1.065c0.004-0.602-0.476-1.083-1.065-1.084
			c-0.597,0.001-1.078,0.482-1.084,1.084C298.844,809.68,299.324,810.162,299.921,810.162L299.921,810.162z"/>
		<path d="M299.921,809.096"/>
		<path d="M297.211,815.376c0.004,0.331-0.268,0.566-0.561,0.561c0,0-3.762,0.006-3.776,0c-0.286,0.006-0.563-0.233-0.561-0.561
			v-4.094c-0.002-0.469,0.374-0.789,0.785-0.785c-0.005-0.004,3.327,0,3.327,0c0.449-0.004,0.789,0.352,0.785,0.785V815.376
			L297.211,815.376z"/>
		<path d="M296.295,815.788h-1.439v5.532c0.009,0.98,1.44,0.98,1.439,0V815.788L296.295,815.788z"/>
		<path d="M294.65,815.788h-1.439v5.532c0.006,0.973,1.437,0.973,1.439,0V815.788L294.65,815.788z"/>
		<path d="M294.781,810.162c0.589,0,1.07-0.481,1.065-1.065c0.004-0.602-0.476-1.083-1.065-1.084
			c-0.597,0.001-1.078,0.482-1.084,1.084C293.704,809.68,294.184,810.162,294.781,810.162L294.781,810.162z"/>
		<path d="M294.781,809.096"/>
		<path d="M292.071,815.376c0.004,0.331-0.268,0.566-0.561,0.561c0,0-3.762,0.006-3.776,0c-0.286,0.006-0.563-0.233-0.561-0.561
			v-4.094c-0.002-0.469,0.374-0.789,0.785-0.785c-0.004-0.004,3.327,0,3.327,0c0.449-0.004,0.79,0.352,0.785,0.785V815.376
			L292.071,815.376z"/>
		<path d="M291.155,815.788h-1.439v5.532c0.009,0.98,1.44,0.98,1.439,0V815.788L291.155,815.788z"/>
		<path d="M289.51,815.788h-1.439v5.532c0.006,0.973,1.437,0.973,1.439,0V815.788L289.51,815.788z"/>
		<path d="M289.641,810.162c0.589,0,1.07-0.481,1.065-1.065c0.004-0.602-0.477-1.083-1.065-1.084
			c-0.597,0.001-1.078,0.482-1.084,1.084C288.563,809.68,289.044,810.162,289.641,810.162L289.641,810.162z"/>
		<path d="M289.641,809.096"/>
	</g>
	<g>
		<path d="M721.735,391.194v-16.991l0,0c0.001-1.69,1.303-3.097,3.103-3.103h17.009c1.732,0.006,3.091,1.394,3.084,3.103v16.991l0,0
			c0.011,1.802-1.371,3.071-3.065,3.065h-17.028l0,0C723.136,394.266,721.732,392.918,721.735,391.194L721.735,391.194z"/>
		<polygon fill="#FFFFFF" points="724.932,374.353 741.735,374.353 741.735,391.044 724.932,391.044 724.932,374.353 		"/>
		<path d="M737.53,357.96c-0.014-2.214,3.198-2.24,3.215,0l-0.056,6.748l1.738-2.112c1.191-1.317,3.29,0.508,2,1.981l-4.187,4.991
			c-0.671,0.668-1.532,0.664-2.187,0l-4.168-5.009c-1.301-1.474,0.816-3.318,1.981-1.981l1.72,2.131L737.53,357.96L737.53,357.96z"
			/>
		<path d="M725.866,368.409c-0.013,2.22,3.199,2.245,3.215,0l-0.038-6.748l1.72,2.131c1.192,1.303,3.29-0.522,2-2l-4.187-4.991
			c-0.67-0.663-1.531-0.659-2.187,0l-4.168,5.009c-1.3,1.479,0.817,3.323,1.981,2l1.72-2.149L725.866,368.409L725.866,368.409z"/>
		<path d="M740.932,383.923c0.004,0.331-0.268,0.566-0.561,0.561c0,0-3.762,0.006-3.776,0c-0.286,0.006-0.563-0.233-0.561-0.561
			v-4.094c-0.002-0.469,0.374-0.79,0.785-0.785c-0.005-0.004,3.327,0,3.327,0c0.449-0.004,0.789,0.352,0.785,0.785V383.923
			L740.932,383.923z"/>
		<path d="M740.016,384.334h-1.439v5.533c0.009,0.98,1.44,0.98,1.439,0V384.334L740.016,384.334z"/>
		<path d="M738.371,384.334h-1.439v5.533c0.006,0.973,1.437,0.973,1.439,0V384.334L738.371,384.334z"/>
		<path d="M738.502,378.708c0.589,0,1.07-0.48,1.065-1.065c0.004-0.601-0.476-1.082-1.065-1.084
			c-0.597,0.002-1.078,0.483-1.084,1.084C737.424,378.227,737.905,378.708,738.502,378.708L738.502,378.708z"/>
		<path d="M738.502,377.642"/>
		<path d="M735.792,383.923c0.004,0.331-0.268,0.566-0.561,0.561c0,0-3.762,0.006-3.776,0c-0.286,0.006-0.563-0.233-0.561-0.561
			v-4.094c-0.002-0.469,0.374-0.79,0.785-0.785c-0.005-0.004,3.327,0,3.327,0c0.449-0.004,0.789,0.352,0.785,0.785V383.923
			L735.792,383.923z"/>
		<path d="M734.876,384.334h-1.439v5.533c0.009,0.98,1.44,0.98,1.439,0V384.334L734.876,384.334z"/>
		<path d="M733.231,384.334h-1.439v5.533c0.006,0.973,1.437,0.973,1.439,0V384.334L733.231,384.334z"/>
		<path d="M733.362,378.708c0.589,0,1.07-0.48,1.065-1.065c0.004-0.601-0.476-1.082-1.065-1.084
			c-0.597,0.002-1.078,0.483-1.084,1.084C732.284,378.227,732.765,378.708,733.362,378.708L733.362,378.708z"/>
		<path d="M733.362,377.642"/>
		<path d="M730.651,383.923c0.004,0.331-0.268,0.566-0.561,0.561c0,0-3.762,0.006-3.776,0c-0.286,0.006-0.563-0.233-0.561-0.561
			v-4.094c-0.002-0.469,0.374-0.79,0.785-0.785c-0.004-0.004,3.327,0,3.327,0c0.449-0.004,0.79,0.352,0.785,0.785V383.923
			L730.651,383.923z"/>
		<path d="M729.736,384.334h-1.439v5.533c0.009,0.98,1.44,0.98,1.439,0V384.334L729.736,384.334z"/>
		<path d="M728.091,384.334h-1.439v5.533c0.006,0.973,1.437,0.973,1.439,0V384.334L728.091,384.334z"/>
		<path d="M728.222,378.708c0.589,0,1.07-0.48,1.065-1.065c0.004-0.601-0.477-1.082-1.065-1.084
			c-0.597,0.002-1.078,0.483-1.084,1.084C727.144,378.227,727.625,378.708,728.222,378.708L728.222,378.708z"/>
		<path d="M728.222,377.642"/>
	</g>
	<g>
		<path d="M738.235,486.047v-16.99l0,0c0.001-1.69,1.303-3.097,3.103-3.103h17.009c1.732,0.006,3.091,1.394,3.084,3.103v16.99l0,0
			c0.011,1.803-1.371,3.072-3.065,3.065h-17.028l0,0C739.636,489.12,738.232,487.772,738.235,486.047L738.235,486.047z"/>
		<polygon fill="#FFFFFF" points="741.432,469.207 758.235,469.207 758.235,485.898 741.432,485.898 741.432,469.207 		"/>
		<path d="M754.03,452.814c-0.014-2.214,3.198-2.24,3.215,0l-0.056,6.748l1.738-2.112c1.191-1.317,3.29,0.508,2,1.981l-4.187,4.991
			c-0.671,0.668-1.532,0.664-2.187,0l-4.168-5.009c-1.301-1.474,0.816-3.318,1.981-1.981l1.72,2.131L754.03,452.814L754.03,452.814z
			"/>
		<path d="M742.366,463.263c-0.013,2.22,3.199,2.245,3.215,0l-0.038-6.748l1.72,2.131c1.192,1.303,3.29-0.522,2-2l-4.187-4.991
			c-0.67-0.663-1.531-0.659-2.187,0l-4.168,5.009c-1.3,1.479,0.817,3.323,1.981,2l1.72-2.149L742.366,463.263L742.366,463.263z"/>
		<path d="M757.432,478.777c0.004,0.331-0.268,0.566-0.561,0.561c0,0-3.762,0.006-3.776,0c-0.286,0.006-0.563-0.233-0.561-0.561
			v-4.094c-0.002-0.469,0.374-0.789,0.785-0.785c-0.005-0.004,3.327,0,3.327,0c0.449-0.004,0.789,0.352,0.785,0.785V478.777
			L757.432,478.777z"/>
		<path d="M756.516,479.188h-1.439v5.532c0.009,0.98,1.44,0.98,1.439,0V479.188L756.516,479.188z"/>
		<path d="M754.871,479.188h-1.439v5.532c0.006,0.973,1.437,0.973,1.439,0V479.188L754.871,479.188z"/>
		<path d="M755.002,473.562c0.589,0,1.07-0.481,1.065-1.065c0.004-0.602-0.476-1.083-1.065-1.084
			c-0.597,0.001-1.078,0.482-1.084,1.084C753.924,473.081,754.405,473.562,755.002,473.562L755.002,473.562z"/>
		<path d="M755.002,472.497"/>
		<path d="M752.292,478.777c0.004,0.331-0.268,0.566-0.561,0.561c0,0-3.762,0.006-3.776,0c-0.286,0.006-0.563-0.233-0.561-0.561
			v-4.094c-0.002-0.469,0.374-0.789,0.785-0.785c-0.005-0.004,3.327,0,3.327,0c0.449-0.004,0.789,0.352,0.785,0.785V478.777
			L752.292,478.777z"/>
		<path d="M751.376,479.188h-1.439v5.532c0.009,0.98,1.44,0.98,1.439,0V479.188L751.376,479.188z"/>
		<path d="M749.731,479.188h-1.439v5.532c0.006,0.973,1.437,0.973,1.439,0V479.188L749.731,479.188z"/>
		<path d="M749.862,473.562c0.589,0,1.07-0.481,1.065-1.065c0.004-0.602-0.476-1.083-1.065-1.084
			c-0.597,0.001-1.078,0.482-1.084,1.084C748.784,473.081,749.265,473.562,749.862,473.562L749.862,473.562z"/>
		<path d="M749.862,472.497"/>
		<path d="M747.151,478.777c0.004,0.331-0.268,0.566-0.561,0.561c0,0-3.762,0.006-3.776,0c-0.286,0.006-0.563-0.233-0.561-0.561
			v-4.094c-0.002-0.469,0.374-0.789,0.785-0.785c-0.004-0.004,3.327,0,3.327,0c0.449-0.004,0.79,0.352,0.785,0.785V478.777
			L747.151,478.777z"/>
		<path d="M746.236,479.188h-1.439v5.532c0.009,0.98,1.44,0.98,1.439,0V479.188L746.236,479.188z"/>
		<path d="M744.591,479.188h-1.439v5.532c0.006,0.973,1.437,0.973,1.439,0V479.188L744.591,479.188z"/>
		<path d="M744.722,473.562c0.589,0,1.07-0.481,1.065-1.065c0.004-0.602-0.477-1.083-1.065-1.084
			c-0.597,0.001-1.078,0.482-1.084,1.084C743.644,473.081,744.125,473.562,744.722,473.562L744.722,473.562z"/>
		<path d="M744.722,472.497"/>
	</g>
	<g>
		<path d="M1116.334,244.657v-16.991l0,0c0-1.69,1.303-3.097,3.103-3.103h17.01c1.731,0.006,3.091,1.394,3.084,3.103v16.991l0,0
			c0.011,1.802-1.372,3.071-3.065,3.065h-17.028l0,0C1117.735,247.729,1116.332,246.381,1116.334,244.657L1116.334,244.657z"/>
		<polygon fill="#FFFFFF" points="1119.531,227.815 1136.334,227.815 1136.334,244.507 1119.531,244.507 1119.531,227.815 		"/>
		<path d="M1132.128,211.423c-0.015-2.214,3.198-2.24,3.215,0l-0.056,6.748l1.738-2.112c1.191-1.317,3.289,0.508,2,1.981
			l-4.187,4.991c-0.672,0.668-1.532,0.664-2.188,0l-4.168-5.009c-1.302-1.474,0.816-3.318,1.981-1.981l1.72,2.131L1132.128,211.423
			L1132.128,211.423z"/>
		<path d="M1120.465,221.872c-0.014,2.22,3.198,2.245,3.215,0l-0.038-6.748l1.72,2.131c1.192,1.303,3.291-0.522,2-2l-4.187-4.991
			c-0.671-0.663-1.531-0.659-2.187,0l-4.169,5.009c-1.3,1.479,0.817,3.323,1.981,2l1.72-2.149L1120.465,221.872L1120.465,221.872z"
			/>
		<path d="M1135.531,237.385c0.004,0.332-0.268,0.567-0.561,0.561c0,0-3.762,0.006-3.776,0c-0.286,0.006-0.562-0.233-0.561-0.561
			v-4.093c-0.002-0.469,0.374-0.79,0.785-0.785c-0.005-0.004,3.327,0,3.327,0c0.449-0.004,0.789,0.352,0.785,0.785V237.385
			L1135.531,237.385z"/>
		<path d="M1134.615,237.797h-1.439v5.533c0.009,0.98,1.44,0.98,1.439,0V237.797L1134.615,237.797z"/>
		<path d="M1132.97,237.797h-1.439v5.533c0.006,0.973,1.437,0.973,1.439,0V237.797L1132.97,237.797z"/>
		<path d="M1133.1,232.17c0.59,0,1.07-0.48,1.065-1.065c0.005-0.601-0.476-1.082-1.065-1.084c-0.597,0.002-1.077,0.483-1.084,1.084
			C1132.023,231.69,1132.503,232.171,1133.1,232.17L1133.1,232.17z"/>
		<path d="M1133.1,231.105"/>
		<path d="M1130.39,237.385c0.005,0.332-0.268,0.567-0.561,0.561c0,0-3.762,0.006-3.775,0c-0.286,0.006-0.563-0.233-0.562-0.561
			v-4.093c-0.002-0.469,0.374-0.79,0.785-0.785c-0.005-0.004,3.327,0,3.327,0c0.449-0.004,0.79,0.352,0.785,0.785V237.385
			L1130.39,237.385z"/>
		<path d="M1129.474,237.797h-1.439v5.533c0.01,0.98,1.44,0.98,1.439,0V237.797L1129.474,237.797z"/>
		<path d="M1127.83,237.797h-1.439v5.533c0.006,0.973,1.437,0.973,1.439,0V237.797L1127.83,237.797z"/>
		<path d="M1127.96,232.17c0.589,0,1.07-0.48,1.065-1.065c0.005-0.601-0.477-1.082-1.065-1.084
			c-0.597,0.002-1.078,0.483-1.084,1.084C1126.882,231.69,1127.364,232.171,1127.96,232.17L1127.96,232.17z"/>
		<path d="M1127.96,231.105"/>
		<path d="M1125.25,237.385c0.004,0.332-0.269,0.567-0.562,0.561c0,0-3.762,0.006-3.775,0c-0.286,0.006-0.562-0.233-0.561-0.561
			v-4.093c-0.002-0.469,0.373-0.79,0.785-0.785c-0.005-0.004,3.327,0,3.327,0c0.449-0.004,0.789,0.352,0.785,0.785V237.385
			L1125.25,237.385z"/>
		<path d="M1124.334,237.797h-1.439v5.533c0.009,0.98,1.44,0.98,1.439,0V237.797L1124.334,237.797z"/>
		<path d="M1122.689,237.797h-1.438v5.533c0.005,0.973,1.437,0.973,1.438,0V237.797L1122.689,237.797z"/>
		<path d="M1122.82,232.17c0.59,0,1.07-0.48,1.065-1.065c0.005-0.601-0.476-1.082-1.065-1.084c-0.597,0.002-1.077,0.483-1.084,1.084
			C1121.743,231.69,1122.223,232.171,1122.82,232.17L1122.82,232.17z"/>
		<path d="M1122.82,231.105"/>
	</g>
</g>
<text transform="matrix(1 0 0 1 74.5044 113.6021)" font-family="'ArialMT'" font-size="12">Hans Cafe &amp; Cake House</text>
<text transform="matrix(1 0 0 1 177.6694 161.564)" font-family="'ArialMT'" font-size="12">Ayano</text>
<text transform="matrix(1 0 0 1 185.7349 216.106)" font-family="'ArialMT'" font-size="12">E-style</text>
<text transform="matrix(1 0 0 1 171.0928 294.9761)" font-family="'ArialMT'" font-size="12">KFC</text>
<text transform="matrix(1 0 0 1 190.5571 401.353)" font-family="'ArialMT'" font-size="12">Denizen</text>
<text transform="matrix(1 0 0 1 213.8906 467.7163)" font-family="'ArialMT'" font-size="12">Giordano</text>
<text transform="matrix(1 0 0 1 212.3086 521.8999)" font-family="'ArialMT'" font-size="12">Precious Thots</text>
<text transform="matrix(1 0 0 1 248.4492 571.4644)" font-family="'ArialMT'" font-size="12">Sasa</text>
<text transform="matrix(1 0 0 1 240.1938 677.4009)" font-family="'ArialMT'" font-size="12">Burger King</text>
<text transform="matrix(1 0 0 1 309.2578 760.5493)" font-family="'ArialMT'" font-size="12">Fond</text>
<text transform="matrix(1 0 0 1 519.8921 693.8569)" font-family="'ArialMT'" font-size="12">Cedele by</text>
<text transform="matrix(1 0 0 1 648.083 686.7739)" font-family="'ArialMT'" font-size="12">WILD Roses,</text>
<text transform="matrix(1 0 0 1 796.6436 720.5679)" font-family="'ArialMT'" font-size="12">EC</text>
<text transform="matrix(1 0 0 1 896.3569 840.5884)" font-family="'ArialMT'" font-size="12">Nike by B.I.R.D</text>
<text transform="matrix(1 0 0 1 875.3188 680.2739)" font-family="'ArialMT'" font-size="12">New Balance Concept Store</text>
<text transform="matrix(1 0 0 1 1049.3823 671.9009)" font-family="'ArialMT'" font-size="12">Sun</text>
<text transform="matrix(1 0 0 1 1114.3784 605.564)" font-family="'ArialMT'" font-size="12">Urban 360/</text>
<text transform="matrix(1 0 0 1 1207.0454 555.4897)" font-family="'ArialMT'" font-size="12">Running Lab</text>
<text transform="matrix(1 0 0 1 1331.0444 555.4897)" font-family="'ArialMT'" font-size="12">Cotton On</text>
<text transform="matrix(1 0 0 1 1482.1646 560.6929)" font-family="'ArialMT'" font-size="12">Cotton Body</text>
<text transform="matrix(1 0 0 1 1498.9214 687.4653)" font-family="'ArialMT'" font-size="12">Ramen</text>
<text transform="matrix(1 0 0 1 1486.4438 792.9419)" font-family="'ArialMT'" font-size="12">Spinelli</text>
<text transform="matrix(1 0 0 1 1573.5425 798.9419)" font-family="'ArialMT'" font-size="12">Harrys @</text>
<text transform="matrix(1 0 0 1 1039.6899 842.3169)" font-family="'ArialMT'" font-size="12">iStudio</text>
<text transform="matrix(1 0 0 1 1122.6196 839.0562)" font-family="'ArialMT'" font-size="12">Hagen-Dazs</text>
<text transform="matrix(1 0 0 1 808.0845 748.5522)" font-family="'ArialMT'" font-size="12">Old</text>
<text transform="matrix(1 0 0 1 479.2207 748.1909)" font-family="'ArialMT'" font-size="12">Cupid Jewels</text>
<text transform="matrix(1 0 0 1 501.7324 792.9419)" font-family="'ArialMT'" font-size="12">City Chain</text>
<text transform="matrix(1 0 0 1 516.2256 849.3667)" font-family="'ArialMT'" font-size="12">Long John Silvers</text>
<text transform="matrix(1 0 0 1 510.5586 705.4497)" font-family="'ArialMT'" font-size="12">Bakery Depot</text>
<text transform="matrix(1 0 0 1 329.2793 812.2114)" font-family="'ArialMT'" font-size="12">NUM</text>
<text transform="matrix(1 0 0 1 325.5996 823.2114)" font-family="'ArialMT'" font-size="12">flipflop</text>
<text transform="matrix(1 0 0 1 329.9414 834.4614)" font-family="'ArialMT'" font-size="12">.com</text>
<text transform="matrix(1 0 0 1 619.4131 697.7739)" font-family="'ArialMT'" font-size="12">WILD SSIGG &amp; Brikikov</text>
<text transform="matrix(1 0 0 1 787.6348 731.5679)" font-family="'ArialMT'" font-size="12">House</text>
<text transform="matrix(1 0 0 1 799.7407 759.5522)" font-family="'ArialMT'" font-size="12">Chang</text>
<text transform="matrix(1 0 0 1 806.7456 770.5522)" font-family="'ArialMT'" font-size="12">Kee</text>
<text transform="matrix(1 0 0 1 1036.3784 682.9009)" font-family="'ArialMT'" font-size="12">Paradise</text>
<text transform="matrix(1 0 0 1 1113.7192 616.564)" font-family="'ArialMT'" font-size="12">Sportiv 360</text>
<text transform="matrix(1 0 0 1 1496.5054 698.4653)" font-family="'ArialMT'" font-size="12">Monster</text>
<text transform="matrix(1 0 0 1 1583.1372 693.8569)" font-family="'ArialMT'" font-size="12">MOS Burger</text>
<text transform="matrix(1 0 0 1 1720.4585 688.2046)" font-family="'ArialMT'" font-size="12">TCC</text>
<text transform="matrix(1 0 0 1 1667.7769 699.2046)" font-family="'ArialMT'" font-size="12">The Coffee Connoisseur</text>
<text transform="matrix(1 0 0 1 1488.2192 803.9419)" font-family="'ArialMT'" font-size="12">Coffee</text>
<text transform="matrix(1 0 0 1 1480.1099 814.9419)" font-family="'ArialMT'" font-size="12">Company</text>
<text transform="matrix(1 0 0 1 1557.1655 809.9419)" font-family="'ArialMT'" font-size="12">Velocity Novena</text>
<text transform="matrix(1 0 0 1 698.813 560.9897)" font-family="'ArialMT'" font-size="12">United Overseas Bank</text>
<text transform="matrix(1 0 0 1 556.5674 519.5757)" font-family="'ArialMT'" font-size="12">Esprit</text>
<text transform="matrix(1 0 0 1 745.8403 549.9897)" font-family="'ArialMT'" font-size="12">UOB</text>
<text transform="matrix(1 0 0 1 453.9102 400.6597)" font-family="'ArialMT'" font-size="12">The Body Shop</text>
<text transform="matrix(1 0 0 1 546.4199 383.853)" font-family="'ArialMT'" font-size="12">Fersia</text>
<text transform="matrix(1 0 0 1 555.4199 394.853)" font-family="'ArialMT'" font-size="12">De</text>
<text transform="matrix(1 0 0 1 549.4199 405.853)" font-family="'ArialMT'" font-size="12">Flora</text>
<text transform="matrix(1 0 0 1 548.0869 416.853)" font-family="'ArialMT'" font-size="12">&amp; Gift</text>
<text transform="matrix(1 0 0 1 648.083 414.0269)" font-family="'ArialMT'" font-size="12">Guardian</text>
<text transform="matrix(1 0 0 1 819.3296 355.7515)" font-family="'ArialMT'" font-size="12">Home-Fix</text>
<text transform="matrix(1 0 0 1 629.4062 425.0269)" font-family="'ArialMT'" font-size="12">Health &amp; Beauty</text>
<text transform="matrix(1 0 0 1 804.0894 366.7515)" font-family="'ArialMT'" font-size="12">The D.I.Y Store</text>
<text transform="matrix(1 0 0 1 757.9189 152.2124)" font-family="'ArialMT'" font-size="12">Cold Storage</text>
<text transform="matrix(1 0 0 1 533.416 248.1177)" font-family="'ArialMT'" font-size="12">GNS</text>
<text transform="matrix(1 0 0 1 523.0742 259.1177)" font-family="'ArialMT'" font-size="12">(General</text>
<text transform="matrix(1 0 0 1 524.0762 270.1177)" font-family="'ArialMT'" font-size="12">Nutrition</text>
<text transform="matrix(1 0 0 1 528.4092 281.1177)" font-family="'ArialMT'" font-size="12">Centre</text>
<text transform="matrix(1 0 0 1 453.9102 273.8208)" font-family="'ArialMT'" font-size="12">BreadTalk</text>
<text transform="matrix(1 0 0 1 401.2437 232.4878)" font-family="'ArialMT'" font-size="12">Citigems</text>
<text transform="matrix(1 0 0 1 390.1426 129.4863)" font-family="'ArialMT'" font-size="12">Levis</text>
<text transform="matrix(1 0 0 1 364.1973 67.8896)" font-family="'ArialMT'" font-size="12">SF food</text>
<text transform="matrix(1 0 0 1 354.5205 78.8896)" font-family="'ArialMT'" font-size="12">&amp; beverage</text>
<text transform="matrix(1 0 0 1 366.1953 89.8896)" font-family="'ArialMT'" font-size="12">Pte Ltd</text>
</svg>
